<svg xmlns="http://www.w3.org/2000/svg" width="216.298" height="105.211" viewBox="0 0 216.298 105.211">
  <g id="그룹_315" data-name="그룹 315" transform="translate(-34.733 -358)">
    <g id="typo_exp_wear_w" transform="translate(34.733 358)">
      <path id="パス_2181" data-name="パス 2181" d="M120.359,113.157c-17.9-6.046-31.563-21.042-40.512-37.732,6.167-2.177,17.414-7.5,22.13-9.8A6.774,6.774,0,0,1,105,64.783a6.94,6.94,0,0,1,1.453.121,7.438,7.438,0,0,0,1.572.121c2.056,0,3.144-.6,3.144-1.572,0-2.54-10.521-10.64-11.73-10.64-.242,0-.363.242-.484.726a24.412,24.412,0,0,1-3.628,6.167c-3.75,3.991-11.367,9.916-16.809,13.3a112.415,112.415,0,0,1-9.191-26.363l.242-.121c1.572-.484,2.66-1.453,2.66-2.177,0-.6-.484-.967-4.233-1.814h46.8c2.056,0,2.66-.726,2.66-1.453,0-2.54-9.191-10.521-11.73-10.521-1.209,0-5.2,5.2-6.893,7.981a2.419,2.419,0,0,1-2.056.967H68.6c0-2.9.242-7.256.363-9.07.484-5.684.847-4.353,3.628-6.167,1.209-.726,1.935-1.572,1.935-2.3,0-2.9-14.633-4.474-14.753-4.474s-.121,0-.121.121a2.361,2.361,0,0,0,.121.847c.967,3.991,1.088,10.763,1.088,16.567v4.474H52.4c-6.893,0-27.088-.363-39.423-1.814,0,1.453,3.265,6.167,5.563,6.167h.121c10.763-1.088,26.483-1.33,33.135-1.33h7.86a18.513,18.513,0,0,1-2.419,5.079C46.351,64.058,25.914,80.384,10.677,88.365c-1.693.967-2.419,1.572-2.419,1.814,0,.121.121.242.363.242,2.177,0,18.865-6.772,35.8-19.832.121,4.474.242,9.916.242,12.214v25.639c-8.586,2.3-15.358,3.87-22.372,4.112-.847,0-1.088,0-1.088.242,0,.484,6.772,9.916,8.586,9.916,1.088,0,1.572-1.572,2.9-2.056C51.066,113.4,81.9,99.492,81.9,96.59c0-.242-.242-.363-.6-.363a4.181,4.181,0,0,0-1.453.363c-8.223,3.507-18.865,6.893-28.3,9.8V73.613c.121-3.507.363-3.386,1.935-4.353,1.209-.726,1.814-1.453,1.814-2.056,0-1.209-2.9-1.814-4.233-1.935A96.774,96.774,0,0,0,65.576,49.79a10.275,10.275,0,0,1,1.693-2.177c4.96,45.47,36.281,71.47,39.183,71.47a2,2,0,0,0,1.453-.6c3.144-3.023,13.546-3.507,13.546-4.593q0-.365-1.092-.727Z" transform="translate(-8.258 -17.5)" fill="#fff"/>
      <path id="パス_2182" data-name="パス 2182" d="M282.2,144.583a.4.4,0,0,1-.293-.09.168.168,0,0,1-.031-.212l5.987-14.008a.525.525,0,0,1,.292-.272,1.454,1.454,0,0,1,.494-.071.286.286,0,0,1,.252.1.234.234,0,0,1,.01.242l-5.986,14.008a.422.422,0,0,1-.262.242,1.492,1.492,0,0,1-.464.06Zm25.335-.927q-.06,0-.281-.562L302.9,132.168a2.282,2.282,0,0,0-1.453-1.33,2.712,2.712,0,0,1-.5-.222q-.161-.1-.161-.222,0-.222.584-.222l.847.02q.6.04.947.04l1.209-.02q.262-.02.665-.02.584,0,.585.222a.246.246,0,0,1-.151.222,2.79,2.79,0,0,1-.516.181q-.4.1-.4.665a2.006,2.006,0,0,0,.071.524q.07.262.09.343.907,2.338,1.594,3.981t1.713,3.941q.081.2.161.2t.141-.181l1.572-3.89a1.378,1.378,0,0,0,.121-.464,2.03,2.03,0,0,0-.161-.585L308.7,132.49a2.578,2.578,0,0,0-.786-1.048,3.091,3.091,0,0,0-1.129-.6,1.845,1.845,0,0,1-.5-.212.3.3,0,0,1-.161-.232q0-.222.585-.222l.867.02q.645.04,1.028.04l.927-.02q.242-.02.625-.02.585,0,.585.222a.239.239,0,0,1-.09.181,1.572,1.572,0,0,1-.272.181q-.464.2-.464.484a.661.661,0,0,0,.04.161q.141.4.413,1.1t.494,1.179q.02.04.07.151t.111.111q.06,0,.181-.262a18.726,18.726,0,0,0,.806-2.278.446.446,0,0,0,.02-.141.4.4,0,0,0-.111-.292,1.636,1.636,0,0,0-.312-.232.858.858,0,0,0-.119-.079.592.592,0,0,1-.151-.121.214.214,0,0,1-.051-.141q0-.222.585-.222l.645.02a2.778,2.778,0,0,0,.4.02l.585-.02a5.653,5.653,0,0,1,.6-.04q.584,0,.585.222,0,.262-.665.4a2.4,2.4,0,0,0-.846.322,2.323,2.323,0,0,0-.524.645q-.161.281-.494,1.048t-.574,1.431a1.753,1.753,0,0,0-.121.422.708.708,0,0,0,0,.343l2.076,5.34q.04.081.06.081.06,0,.161-.2.766-2.036,2.459-7.8a2.283,2.283,0,0,0,.121-.726.791.791,0,0,0-.6-.867q-.665-.181-.665-.4t.584-.222l1.453.02q.383,0,1.028-.04l.786-.02q.585,0,.585.222,0,.262-.665.4a2.5,2.5,0,0,0-1.653,1.774l-3.57,10.541a2,2,0,0,1-.131.292q-.091.172-.192.172-.081,0-.181-.121a1.059,1.059,0,0,1-.161-.262q-.746-1.673-1.571-3.89l-.907-2.338q-.06-.121-.081-.121-.04,0-.141.242-.685,1.633-1.159,2.842t-1.14,3.1a1.98,1.98,0,0,1-.2.433q-.121.192-.242.192Zm16.667-.222q-.585,0-.585-.222a.246.246,0,0,1,.163-.222,1.959,1.959,0,0,1,.5-.141,2.222,2.222,0,0,0,1.137-.474,1.366,1.366,0,0,0,.353-1.038v-9.07a1.463,1.463,0,0,0-.293-1.018,1.922,1.922,0,0,0-1.058-.453q-.665-.121-.665-.4,0-.222.584-.222.766,0,1.854.04l1.713.02,2.761-.02,1.713-.04q.343,0,.363.181.04.161.172.887a6.969,6.969,0,0,1,.131,1.189q0,.3-.281.3a.2.2,0,0,1-.141-.04.437.437,0,0,1-.081-.161q-.04-.1-.161-.524a1.382,1.382,0,0,0-.281-.584,1.713,1.713,0,0,0-1.35-.544h-2.641a.824.824,0,0,0-.464.191.554.554,0,0,0-.261.452v4.273a.469.469,0,0,0,.111.313.325.325,0,0,0,.252.131h2a1.176,1.176,0,0,0,.786-.2,1.694,1.694,0,0,0,.383-.786q.121-.443.363-.443a.254.254,0,0,1,.172.091.314.314,0,0,1,.09.232l-.02.524-.04.887.02,1.068.02.484q0,.343-.181.343-.3,0-.464-.645a1.49,1.49,0,0,0-.332-.7.8.8,0,0,0-.595-.211H328.07a1.021,1.021,0,0,0-.534.1.48.48,0,0,0-.151.422v3.87a1.132,1.132,0,0,0,1.331,1.35h1.491a6.175,6.175,0,0,0,1.1-.081,2.206,2.206,0,0,0,.736-.262,2.169,2.169,0,0,0,.554-.554,9.26,9.26,0,0,0,.595-1q.141-.262.281-.262.262,0,.262.281a5.623,5.623,0,0,1-.222,1.1,8.658,8.658,0,0,1-.4,1.24q-.02.04-.06.141a.449.449,0,0,1-.091.151.177.177,0,0,1-.131.05q-.4,0-3.547-.06-1.391-.06-2.761-.06a8.476,8.476,0,0,0-1.048.06q-1.027.063-1.271.063Zm14.209,0a1.068,1.068,0,0,1-.422-.07q-.161-.07-.161-.192,0-.262.665-.464a3.1,3.1,0,0,0,1.008-.516,2.582,2.582,0,0,0,.726-1.038q1.068-2.459,1.865-4.464t1.9-5.009a5.25,5.25,0,0,0,.281-1.169l.293-.091a1.527,1.527,0,0,0,.433-.211.781.781,0,0,0,.252-.363q.09-.242.131-.322a.047.047,0,0,1,.051-.01.126.126,0,0,1,.05.03,1.73,1.73,0,0,1,.07.222,1.724,1.724,0,0,0,.07.222q1.491,4.7,3.588,10.763a3.479,3.479,0,0,0,.847,1.5,2.411,2.411,0,0,0,1.189.516,1.167,1.167,0,0,1,.494.191.358.358,0,0,1,.172.272q0,.2-.585.2l-1.086-.038q-1.129-.081-1.713-.081l-2.116.02q-.585,0-.585-.242,0-.121.191-.232a1.313,1.313,0,0,1,.473-.151q1.229-.2,1.229-.907a16.892,16.892,0,0,0-.786-3.265.249.249,0,0,0-.151-.181,1.3,1.3,0,0,0-.393-.04H342.58q-.222,0-.343.363-.222.645-.524,1.683a7.881,7.881,0,0,0-.3,1.219.947.947,0,0,0,.333.726,1.864,1.864,0,0,0,.837.422,2.792,2.792,0,0,1,.516.181.246.246,0,0,1,.151.222q0,.222-.584.222-.363,0-.6-.02l-1.229-.02q-.343,0-.756.03t-.615.03a9.885,9.885,0,0,1-1.049.061Zm7.84-5.784a.849.849,0,0,0,.2-.02q.081-.02.081-.081l-.04-.2-1.572-4.918q-.121-.363-.181-.363-.04,0-.161.343l-1.834,4.938-.04.161a.11.11,0,0,0,.09.121,1.806,1.806,0,0,0,.333.02Zm22.031,6.106a4.758,4.758,0,0,1-1.6-.242,2.718,2.718,0,0,1-1.179-.847q-.927-1.149-1.532-1.965t-1.532-2.328a2.054,2.054,0,0,0-.867-.786,4.838,4.838,0,0,0-1.594-.422h-.04q-.262,0-.262.4v3.547a1.546,1.546,0,0,0,1.35,1.734,1.959,1.959,0,0,1,.5.141.246.246,0,0,1,.161.222q0,.222-.585.222a7.727,7.727,0,0,1-1.169-.081,4.925,4.925,0,0,0-.806-.06q-.363,0-.736.03t-.534.03q-.806.081-1.35.081-.584,0-.584-.222a.246.246,0,0,1,.161-.222,1.96,1.96,0,0,1,.5-.141,2.156,2.156,0,0,0,1.129-.473,1.421,1.421,0,0,0,.343-1.058v-8.587a6.969,6.969,0,0,0-.07-1.2.75.75,0,0,0-.322-.516,2.016,2.016,0,0,0-.837-.222.958.958,0,0,1-.494-.141.332.332,0,0,1-.171-.262q0-.222.585-.222.867,0,1.129.02h.846q.3,0,.907-.04,1.088-.06,1.411-.06a5.722,5.722,0,0,1,3.375.837,2.85,2.85,0,0,1,1.159,2.469,3.72,3.72,0,0,1-2.378,3.386.094.094,0,0,0-.06.1.345.345,0,0,0,.06.161q1.27,1.915,2.046,2.943a16.062,16.062,0,0,0,2.046,2.177,2.344,2.344,0,0,0,.988.544,5.9,5.9,0,0,0,1.33.121q.3,0,.3.222,0,.383-.534.544a3.78,3.78,0,0,1-1.1.161ZM360.74,136.7a3.038,3.038,0,0,0,1.582-.413,2.841,2.841,0,0,0,1.068-1.1,3.031,3.031,0,0,0,.375-1.471,3.612,3.612,0,0,0-.6-2.227,2.83,2.83,0,0,0-2.358-.8.862.862,0,0,0-.837.393,3.805,3.805,0,0,0-.252,1.482q-.04,1.371-.04,3.426,0,.464.242.584a2.007,2.007,0,0,0,.825.123Z" transform="translate(-153.611 -77.01)" fill="#fff"/>
    </g>
    <path id="패스_833" data-name="패스 833" d="M4.179,2.3a2.812,2.812,0,0,1,.811.242,2.337,2.337,0,0,1,.634.435,1.86,1.86,0,0,1,.408.591,1.73,1.73,0,0,1,.145.7,1.711,1.711,0,0,1-.188.795,1.962,1.962,0,0,1-.521.634,2.48,2.48,0,0,1-.79.419,3.123,3.123,0,0,1-.983.15,3.159,3.159,0,0,1-.994-.15,2.48,2.48,0,0,1-.79-.419A1.9,1.9,0,0,1,1.4,5.059a1.752,1.752,0,0,1-.183-.795,1.7,1.7,0,0,1,.161-.73,1.944,1.944,0,0,1,.446-.607A2.393,2.393,0,0,1,2.5,2.491a2.822,2.822,0,0,1,.87-.215.307.307,0,0,0-.118-.193,1.293,1.293,0,0,0-.344-.161l.183-.312.279.054.328.064.328.064q.161.032.29.064-.032.1-.07.2T4.179,2.3Zm.945,1.923a1.455,1.455,0,0,0-.113-.569,1.49,1.49,0,0,0-.306-.467,1.414,1.414,0,0,0-.451-.312,1.352,1.352,0,0,0-.548-.113,1.416,1.416,0,0,0-.564.113,1.4,1.4,0,0,0-.457.312,1.49,1.49,0,0,0-.306.467,1.463,1.463,0,0,0,.306,1.6,1.37,1.37,0,0,0,.457.3,1.478,1.478,0,0,0,.564.107,1.438,1.438,0,0,0,.559-.107,1.384,1.384,0,0,0,.451-.3,1.37,1.37,0,0,0,.3-.457A1.507,1.507,0,0,0,5.124,4.221ZM6.768.858q.258.032.569.081t.623.107l.6.113q.285.054.5.086-.021.1-.043.236t-.043.285q-.021.145-.032.263T8.927,2.2V4.769q0,.193-.016.451t-.043.516q-.027.258-.059.489t-.064.371L8,6.691a2.163,2.163,0,0,1-.032-.279q-.011-.172-.027-.36t-.021-.371q-.005-.183-.005-.333V2.18A.629.629,0,0,0,7.6,1.637a3.416,3.416,0,0,0-1.026-.381ZM7.96,10.709q-.72-.032-1.525,0l-1.644.064q-.021.1-.038.188a1.656,1.656,0,0,1-.038.167l-.709.118q-.032-.215-.064-.532a6.131,6.131,0,0,1-.032-.619V8.186a1.126,1.126,0,0,0-.032-.291.466.466,0,0,0-.124-.21.731.731,0,0,0-.263-.156A3.689,3.689,0,0,0,3.04,7.4l.172-.365q.183.021.408.043t.467.054q.242.032.478.075t.44.086q-.021.1-.038.226t-.027.252Q4.931,7.895,4.92,8t-.011.172v.161q.73-.021,1.482-.054t1.525-.1V7.841a.818.818,0,0,0-.043-.279.461.461,0,0,0-.15-.2,1.073,1.073,0,0,0-.3-.156q-.188-.07-.478-.145l.172-.4q.43.054.956.124t.956.156q-.021.1-.043.232t-.043.264q-.021.129-.032.237t-.011.161V9.492a5.452,5.452,0,0,1-.064.878q-.064.393-.118.64l-.709.107a.99.99,0,0,1-.027-.188A1.751,1.751,0,0,0,7.96,10.709Zm-.043-.763V8.829a26.568,26.568,0,0,0-3.008.064v.73a4.613,4.613,0,0,1-.032.569q.741-.021,1.52-.048t1.52-.081ZM18.232,2.18a.633.633,0,0,0-.306-.542,3.254,3.254,0,0,0-1.015-.381l.161-.4q.269.032.585.081t.628.107l.591.113q.279.054.483.086-.021.1-.043.236t-.038.285q-.016.145-.027.263t-.011.172V5.177q.462-.032,1.063-.1t1.1-.15l-.118.87q-.193-.011-.451-.011h-1.59V8.152q0,.333-.011.768t-.032.87q-.021.435-.054.827t-.075.628l-.741.1q-.021-.172-.038-.462t-.032-.618q-.016-.328-.021-.677t-.005-.661V6.874q-.494.193-1.112.4t-1.262.387q-.645.183-1.257.328t-1.1.209a.951.951,0,0,1-.8-.134.957.957,0,0,1-.242-.736V4.2a1.573,1.573,0,0,0-.032-.338.493.493,0,0,0-.134-.247.919.919,0,0,0-.29-.183,4.218,4.218,0,0,0-.489-.167l.161-.4a11.146,11.146,0,0,0,1.305.124q.693.027,1.391,0t1.359-.1q.661-.07,1.208-.167l-.161.827q-1.01-.043-1.842-.021t-1.466.075v3.5a.334.334,0,0,0,.07.247.233.233,0,0,0,.188.054,8.092,8.092,0,0,0,.929-.124q.564-.1,1.192-.242t1.257-.306q.628-.167,1.123-.328Z" transform="translate(183 432.395)" fill="#fff"/>
  </g>
</svg>
