<svg xmlns="http://www.w3.org/2000/svg" xmlns:xlink="http://www.w3.org/1999/xlink" width="203.556" height="105.33" viewBox="0 0 203.556 105.33">
  <defs>
    <clipPath id="clip-path">
      <rect id="사각형_445" data-name="사각형 445" width="81.024" height="14.482" transform="translate(0 0)" fill="none"/>
    </clipPath>
  </defs>
  <g id="그룹_312" data-name="그룹 312" transform="translate(-40.705 -358.811)">
    <path id="パス_2187" data-name="パス 2187" d="M106.749,106.517c-.242,0-.484-.121-.847-.121-.967,0-2.9,2.177-6.651,7.135a2.463,2.463,0,0,1-1.935,1.088H79.3c-.121-5.442-.121-20.316-.121-33.256H105.66c1.935,0,2.54-.726,2.54-1.453,0-2.177-6.288-7.619-10.158-9.07-.242,0-.484-.121-.847-.121-1.572,0-6.288,6.288-6.409,6.53a2.25,2.25,0,0,1-1.814,1.088h-9.8c0-8.465.121-15.6.242-17.777.242-6.288,0-5.2,2.419-6.409,1.088-.6,1.693-1.209,1.693-1.693,0-1.33-2.9-1.814-4.112-1.935h30.232c1.935,0,2.54-.726,2.54-1.453,0-2.66-7.135-8.1-10.158-9.312-.242,0-.484-.121-.847-.121-.242,0-1.33,0-6.409,6.772A2.25,2.25,0,0,1,92.961,47.5H73.612a251.443,251.443,0,0,1-29.749-1.814c0,1.453,3.144,6.046,5.2,6.046h.121a193.5,193.5,0,0,1,21.767-1.209,59.448,59.448,0,0,1,.967,12.214v15.6A239.634,239.634,0,0,1,46.4,76.526c0,1.453,3.144,6.046,5.2,6.046h.121c8.1-.847,14.633-1.088,20.316-1.209,0,12.335,0,27.451-.121,33.256H66.6A258.323,258.323,0,0,1,36.489,112.8c0,1.453,3.386,6.046,5.442,6.046h.121c10.279-.967,17.293-1.209,24.065-1.209H114.73c2.056,0,2.54-.726,2.54-1.453,0-2.054-6.651-8.221-10.521-9.673ZM38.3,19.568c-.363,0-.242.363-.363.967a44.678,44.678,0,0,1-2.54,8.828C27.057,47.261,14,65.642,4.563,74.833a3.141,3.141,0,0,0-1.209,1.693c0,.121.121.121.242.121.726,0,10.279-5.2,23.823-22.009V66.126c0,15.237-.847,37.125-2.3,54.056v.6c0,2.9,1.693,4.112,3.628,4.112,2.056,0,5.321-1.453,5.321-4.837v-.242c-.242-9.312-.363-19.47-.363-29.386,0-12.093.121-23.7.484-32.772.121-3.87.363-3.87,2.9-5.079,1.572-.726,2.54-1.453,2.54-2.177,0-.847,0-1.33-6.893-2.66,3.507-4.837,7.014-9.916,10.279-15.237,1.453-2.3,1.814-2.54,3.628-2.9,2.781-.6,3.75-1.453,3.75-2.419,0-2.66-12.095-7.619-12.095-7.619Zm20.921.6c-.242,0-.363,0-.363.121a16.84,16.84,0,0,0,1.935,1.33c4.716,3.144,11.126,7.981,14.512,12.093C77.242,36.135,79.3,37.1,80.991,37.1c2.3,0,3.991-1.935,3.991-4.474C84.98,23.2,63.577,20.173,59.224,20.173Z" transform="translate(37.351 339.243)" fill="#fff"/>
    <g id="그룹_167" data-name="그룹 167" transform="translate(163.236 410.539)" clip-path="url(#clip-path)">
      <path id="패스_790" data-name="패스 790" d="M19.451,3.372c0-2.083-.04-2.4-1.289-2.5l-.5-.04c-.119-.079-.078-.436.041-.5,1.11.04,1.785.059,2.578.059.773,0,1.449-.02,2.44-.059.119.059.159.416.04.5l-.476.04c-1.17.1-1.21.416-1.21,2.5v6.9c0,1.249.058,1.765.415,2.141.219.218.6.457,2.162.457,1.687,0,2.1-.08,2.42-.258a4.243,4.243,0,0,0,1.309-1.964c.119-.1.5-.02.5.119a15.936,15.936,0,0,1-.833,2.777c-1.011-.04-2.9-.059-4.938-.059H20.284c-.833,0-1.467.02-2.578.059a.385.385,0,0,1-.041-.5l.6-.061c1.15-.118,1.19-.4,1.19-2.479Z" transform="translate(1.787 0.034)" fill="#fff"/>
      <path id="패스_791" data-name="패스 791" d="M36.238,3.412c0-2.1-.04-2.44-1.21-2.539l-.5-.04c-.119-.079-.08-.436.039-.5.993.04,1.667.059,2.5.059.794,0,1.468-.02,2.46-.059.119.059.159.416.04.5l-.5.04c-1.17.1-1.21.436-1.21,2.539v7.061c0,2.1.04,2.379,1.21,2.518l.5.059c.119.079.079.436-.04.5-.991-.04-1.666-.061-2.46-.061-.833,0-1.507.021-2.5.061a.387.387,0,0,1-.039-.5l.5-.059c1.17-.139,1.21-.416,1.21-2.518Z" transform="translate(3.501 0.034)" fill="#fff"/>
      <path id="패스_792" data-name="패스 792" d="M50.786,5.99c0,.535.059.535.654.535h1.348a7.481,7.481,0,0,0,1.687-.119c.218-.079.377-.178.5-.694l.178-.793a.417.417,0,0,1,.516,0c0,.476-.079,1.269-.079,2,0,.715.079,1.468.079,1.924-.079.119-.377.119-.516,0l-.2-.773a.95.95,0,0,0-.635-.753,6.687,6.687,0,0,0-1.528-.1H51.44c-.595,0-.654.019-.654.535v2.756c0,2.083.04,2.381,1.21,2.48l.674.059c.119.079.079.436-.04.5-1.17-.04-1.844-.059-2.637-.059-.874,0-1.548.02-2.48.059a.385.385,0,0,1-.04-.5l.5-.059c1.15-.139,1.19-.4,1.19-2.48V3.373c0-2.083-.04-2.361-1.19-2.5l-.317-.04c-.119-.079-.079-.437.04-.5.833.04,1.508.058,2.3.058h3.65c1.269,0,2.419,0,2.677-.058,0,.912.021,1.864.059,2.617a.354.354,0,0,1-.475.059c-.16-.892-.4-1.626-1.389-1.884a8.479,8.479,0,0,0-1.924-.119h-1.21c-.595,0-.595.04-.595.793Z" transform="translate(4.816 0.034)" fill="#fff"/>
      <path id="패스_793" data-name="패스 793" d="M65.7,3.372c0-2.063-.04-2.361-1.211-2.5l-.317-.04c-.118-.079-.078-.436.04-.5.854.04,1.528.059,2.341.059h3.729A26.628,26.628,0,0,0,72.962.337a22.3,22.3,0,0,1,.317,2.638.39.39,0,0,1-.5.04c-.3-.932-.476-1.627-1.507-1.885a9.478,9.478,0,0,0-1.924-.119H67.924c-.595,0-.595.04-.595.794V5.772c0,.555.058.555.653.555h1.151a7.434,7.434,0,0,0,1.687-.119c.237-.08.376-.2.475-.7l.16-.813a.39.39,0,0,1,.514.02c0,.476-.079,1.249-.079,2,0,.714.079,1.467.079,1.9a.39.39,0,0,1-.514.02l-.178-.773a.85.85,0,0,0-.616-.753,6.633,6.633,0,0,0-1.527-.1H67.983c-.595,0-.653.02-.653.535v2.8c0,1.051.058,1.725.376,2.062.238.238.655.457,2.4.457a5.8,5.8,0,0,0,2.539-.3,4.979,4.979,0,0,0,1.408-1.923.365.365,0,0,1,.5.139,17.33,17.33,0,0,1-.892,2.757c-1.785-.04-3.55-.059-5.315-.059H66.555c-.853,0-1.527.02-2.7.059a.388.388,0,0,1-.04-.5l.655-.061c1.13-.1,1.229-.4,1.229-2.479Z" transform="translate(6.476 0.034)" fill="#fff"/>
      <path id="패스_794" data-name="패스 794" d="M.344,14.48a.392.392,0,0,1-.289-.089.165.165,0,0,1-.031-.209L5.94.341A.52.52,0,0,1,6.228.073,1.44,1.44,0,0,1,6.716,0a.282.282,0,0,1,.249.1.23.23,0,0,1,.01.239L1.061,14.181A.413.413,0,0,1,.8,14.42a1.465,1.465,0,0,1-.458.061" transform="translate(0 0)" fill="#fff"/>
    </g>
    <path id="패스_830" data-name="패스 830" d="M3.889,3.823q.548.451,1.16.892A14.731,14.731,0,0,0,6.4,5.574l-.784.72Q5.092,5.746,4.6,5.257T3.566,4.242A8.647,8.647,0,0,1,2.03,5.676,13.409,13.409,0,0,1,.344,6.724l-.279-.3a10.548,10.548,0,0,0,1.117-.811,9.216,9.216,0,0,0,.988-.951,7.485,7.485,0,0,0,.784-1.042A5.249,5.249,0,0,0,3.47,2.545.478.478,0,0,0,3.5,2.287a.2.2,0,0,0-.081-.1,1.4,1.4,0,0,0-.258-.167q-.172-.091-.4-.2l.247-.333q.44.118.94.269t.929.312A6.932,6.932,0,0,1,3.889,3.823ZM7.2,7.422q-.258-.011-.6-.011t-.687.016q-.349.016-.693.038t-.612.043q-.118.011-.306.021t-.408.032q-.22.021-.451.054t-.435.064L2.514,6.82q.118.021.328.048t.44.048q.231.021.462.038t.392.016h.929q.521,0,1.085-.016t1.139-.048q.575-.032,1.09-.075l-.064.3q-.021.129-.048.269t-.038.236L8.1,8.485a.992.992,0,0,1,.14-.011.6.6,0,0,0,.118-.011l-.075.677q-.6-.032-1.214-.032t-1.16.011q-.548.011-1,.027l-.73.027a1.657,1.657,0,0,0-.011.183V10.2q0,.172.043.2a.629.629,0,0,0,.258.043q.387.011.956-.005t1.182-.059q.612-.043,1.208-.107t1.047-.14L8.68,11q-.58-.021-1.23-.027t-1.289.005q-.639.011-1.235.027t-1.069.038a.64.64,0,0,1-.532-.15.646.646,0,0,1-.156-.451V9.688a1.535,1.535,0,0,0-.027-.317.435.435,0,0,0-.107-.209.679.679,0,0,0-.231-.15q-.15-.064-.408-.15l.183-.333q.548.054,1.139.075T4.9,8.625q.6,0,1.171-.016t1.09-.048ZM8.347,4.747q0,.193-.016.451t-.043.516q-.027.258-.054.489t-.048.371l-.763.1a2.163,2.163,0,0,1-.032-.279q-.011-.172-.027-.36T7.342,5.66q-.005-.183-.005-.333V2.18a.633.633,0,0,0-.306-.542,3.254,3.254,0,0,0-1.015-.381l.161-.4q.269.032.585.081t.628.107l.591.113q.279.054.483.086-.021.1-.043.236t-.038.285q-.016.145-.027.263T8.347,2.2V3.684q.462-.032,1.042-.1t1.063-.15l-.1.859q-.193-.011-.446-.016t-.521-.005q-.269,0-.542.005t-.5.005ZM18.232,2.18a.633.633,0,0,0-.306-.542,3.254,3.254,0,0,0-1.015-.381l.161-.4q.269.032.585.081t.628.107l.591.113q.279.054.483.086-.021.1-.043.236t-.038.285q-.016.145-.027.263t-.011.172V5.177q.462-.032,1.063-.1t1.1-.15l-.118.87q-.193-.011-.451-.011h-1.59V8.152q0,.333-.011.768t-.032.87q-.021.435-.054.827t-.075.628l-.741.1q-.021-.172-.038-.462t-.032-.618q-.016-.328-.021-.677t-.005-.661V6.874q-.494.193-1.112.4t-1.262.387q-.645.183-1.257.328t-1.1.209a.951.951,0,0,1-.8-.134.957.957,0,0,1-.242-.736V4.2a1.573,1.573,0,0,0-.032-.338.493.493,0,0,0-.134-.247.919.919,0,0,0-.29-.183,4.218,4.218,0,0,0-.489-.167l.161-.4a11.146,11.146,0,0,0,1.305.124q.693.027,1.391,0t1.359-.1q.661-.07,1.208-.167l-.161.827q-1.01-.043-1.842-.021t-1.466.075v3.5a.334.334,0,0,0,.07.247.233.233,0,0,0,.188.054,8.092,8.092,0,0,0,.929-.124q.564-.1,1.192-.242t1.257-.306q.628-.167,1.123-.328Z" transform="translate(182 431.493)" fill="#fff"/>
  </g>
</svg>
