<svg xmlns="http://www.w3.org/2000/svg" width="216.06" height="105.088" viewBox="0 0 216.06 105.088">
  <g id="그룹_314" data-name="그룹 314" transform="translate(-33.001 -357)">
    <path id="패스_832" data-name="패스 832" d="M6.016,3.34q.763.183,1.67.322t1.756.226l-.623.752L8.11,4.43l-.881-.258q-.462-.134-.94-.269t-.875-.242A14.637,14.637,0,0,1,3.4,4.479q-1.037.333-2.025.548l-.258-.354A17.652,17.652,0,0,0,4.146,3.565,9.584,9.584,0,0,0,6.467,2.04q-.634,0-1.294.021t-1.208.064l-.306.027q-.188.016-.408.043L2.8,2.25q-.226.027-.4.059l-.559-.87.36.054q.22.032.462.054t.478.038q.236.016.419.016.387,0,.935-.011t1.144-.043q.6-.032,1.182-.091T7.874,1.31l.344.354a7.427,7.427,0,0,1-1,.913A8.976,8.976,0,0,1,6.016,3.34Zm4.211,2.771-.5-.027q-.285-.016-.618-.021t-.687-.016q-.354-.011-.709-.011-.3,0-.763.005t-1,.021L4.834,6.1l-1.08.032q-.51.016-.918.038L2.213,6.2q-.4.021-.87.064t-.849.1L.129,5.424q.483.054,1.037.086T2.2,5.563q.258.011.688.011t.94-.005q.51-.005,1.063-.016t1.058-.027q.5-.016.935-.027t.688-.021q.72-.032,1.461-.1t1.332-.15Zm-3,1.579q-.258-.011-.666-.005T5.709,7.7q-.446.011-.865.027t-.7.038q-.107.011-.3.021t-.408.038l-.451.054a4.2,4.2,0,0,0-.424.07L2.073,7.1q.118.021.322.048t.44.048q.236.021.462.038t.4.016h1q.6,0,1.257-.016t1.311-.048q.65-.032,1.166-.075-.032.161-.064.3-.021.118-.048.258t-.048.226l-.118.741A1.2,1.2,0,0,1,8.3,8.625a.574.574,0,0,0,.113-.011l-.075.666q-.6-.032-1.289-.032T5.72,9.259q-.639.011-1.166.032l-.795.032a1.657,1.657,0,0,0-.011.183v.655a1.29,1.29,0,0,0,.005.134.122.122,0,0,0,.032.075.128.128,0,0,0,.081.032q.054.005.161.005.258.011.639.005t.822-.027q.44-.021.918-.048t.935-.064q.457-.038.865-.081t.709-.1l-.183.849q-.58-.021-1.311-.021t-1.461.005q-.73.005-1.407.021t-1.16.038a.608.608,0,0,1-.521-.15.671.671,0,0,1-.145-.449V9.844A1.6,1.6,0,0,0,2.7,9.524a.434.434,0,0,0-.107-.214.668.668,0,0,0-.242-.15q-.161-.064-.419-.15l.183-.332q.548.054,1.2.075t1.327.021q.677,0,1.332-.016T7.2,8.711ZM17.3,3.007a8.834,8.834,0,0,1-.854,1.821,11.171,11.171,0,0,1-1.235,1.654,11.365,11.365,0,0,1-1.509,1.4,10.537,10.537,0,0,1-1.665,1.058l-.322-.322a8.873,8.873,0,0,0,1.461-1.069A11.166,11.166,0,0,0,14.413,6.24a9.818,9.818,0,0,0,.951-1.407,6.816,6.816,0,0,0,.591-1.386q-.161,0-.414.011t-.526.016q-.274.005-.532.016t-.408.011a2.956,2.956,0,0,0-.312.021q-.193.021-.419.043t-.451.048q-.226.027-.4.059l-.548-.859q.14.021.354.048t.451.048q.236.021.467.032t.414.011q.387,0,.843-.016t.908-.048q.451-.032.865-.086t.725-.118ZM17.619.858q.258.032.569.081t.623.107l.6.113q.285.054.5.086-.021.1-.043.236t-.038.285q-.016.145-.027.263t-.011.172V8.152q0,.333-.016.768t-.043.87q-.027.435-.059.827t-.075.628l-.72.1q-.021-.172-.038-.462t-.032-.618q-.016-.328-.021-.677t-.005-.661V2.18a.629.629,0,0,0-.317-.542,3.416,3.416,0,0,0-1.026-.381ZM29.234,2.18a.633.633,0,0,0-.306-.542,3.254,3.254,0,0,0-1.015-.381l.161-.4q.269.032.585.081t.628.107l.591.113q.279.054.483.086-.021.1-.043.236t-.038.285q-.016.145-.027.263t-.011.172V5.177q.462-.032,1.063-.1t1.1-.15l-.118.87q-.193-.011-.451-.011h-1.59V8.152q0,.333-.011.768t-.032.87q-.021.435-.054.827t-.075.628l-.741.1q-.021-.172-.038-.462t-.032-.618q-.016-.328-.021-.677t-.005-.661V6.874q-.494.193-1.112.4t-1.262.387q-.645.183-1.257.328t-1.1.209a.951.951,0,0,1-.8-.134.957.957,0,0,1-.242-.736V4.2a1.573,1.573,0,0,0-.032-.338.493.493,0,0,0-.134-.247.919.919,0,0,0-.29-.183,4.218,4.218,0,0,0-.489-.167l.161-.4a11.146,11.146,0,0,0,1.305.124q.693.027,1.391,0t1.359-.1q.661-.07,1.208-.167l-.161.827q-1.01-.043-1.842-.021t-1.466.075v3.5a.334.334,0,0,0,.07.247.233.233,0,0,0,.188.054,8.092,8.092,0,0,0,.929-.124q.564-.1,1.192-.242t1.257-.306q.628-.167,1.123-.328Z" transform="translate(181 432)" fill="#fff"/>
    <path id="パス_2193" data-name="パス 2193" d="M120.593,107.788c-13.665,4.113-39.423,6.29-56.232,6.29-3.87,0-7.256-.121-9.916-.363q-14.512-1.27-19.593-9.07a38.551,38.551,0,0,0,8.225-7.74c.847,1.33,7.014,5.079,7.86,7.981a1.315,1.315,0,0,0,1.453.847c8.1,0,14.753-5.8,16.686-18.744a235.614,235.614,0,0,0,2.179-23.824c.121-1.693.242-2.177,1.572-2.781,1.814-.847,2.781-1.693,2.781-2.419,0-.484-.363-1.088-2.177-2.54a33.673,33.673,0,0,0,3.144-3.87c.6,1.453,2.54,4.112,3.507,4.112H80.2c7.135-.6,11.367-.726,13.06-.726h5.079c.363,0,.726.121.726.6s-.6,1.814-4.716,8.828a42.434,42.434,0,0,0-6.288-.967c-.121,0-.242,0-.242.121a.914.914,0,0,0,.121.484,32.064,32.064,0,0,1,.847,7.981v4.233a136.8,136.8,0,0,1-17.656-1.453c0,1.33,3.265,5.442,4.716,5.442h.121a99.865,99.865,0,0,1,12.939-.967c0,2.3.121,4.837.121,7.256,0,11.488-.484,13.06-5.8,13.06a46.707,46.707,0,0,1-9.553-1.453,10.129,10.129,0,0,0-1.209-.242c-.242,0-.363.121-.363.242,0,.726,8.707,5.079,10.521,7.5a2.071,2.071,0,0,0,1.935,1.088c1.693,0,11-1.572,11-11.126,0-2.177-.242-3.265-.363-6.772V79.251h18.381c1.453,0,1.814-.847,1.814-1.453,0-3.144-7.86-7.86-8.343-7.86-1.572,0-4.353,4.233-5.079,5.563a1.706,1.706,0,0,1-1.209.847H95.321V73.2c.121-3.507-.121-3.507,2.056-4.353,1.209-.484,1.814-1.209,1.814-1.814,0-.726-.6-1.453-1.935-1.814-.121,0-.363-.121-.484-.121,3.265-2.66,7.619-6.53,10.158-6.651,2.66-.121,3.75-1.33,3.75-2.54,0-2.781-6.53-6.893-7.74-6.893a1.373,1.373,0,0,0-.967.363,14.592,14.592,0,0,0-1.935,1.935,3.4,3.4,0,0,1-1.814.726H93.5a135.3,135.3,0,0,1-16.446-1.088,97.125,97.125,0,0,0,6.288-10.279H113.1c1.572,0,2.056-.6,2.056-1.209,0-2.3-5.2-6.893-8.343-8.343-.121,0-.242-.121-.484-.121a1.608,1.608,0,0,0-.967.363,26.442,26.442,0,0,0-3.991,5.442,2.151,2.151,0,0,1-1.33.967H84.8c2.3-4.593,4.353-8.828,5.684-11.73.6-1.33.363-1.935,2.056-2.3,2.056-.484,2.9-1.209,2.9-1.935,0-1.814-10.279-5.079-11-5.079-.121,0-.242,0-.242,1.209,0,13.665-11.851,36.037-12.093,36.4-1.453-.967-2.9-1.935-3.75-1.935-.242,0-.363.121-.6.242-2.54,2.54-2.9,2.9-3.991,2.9H56.5c.242-2.66.484-5.2.6-7.619.121-2.54.121-3.023,1.935-3.628,1.209-.363,1.935-.967,1.935-1.693,0-.363-.242-.726-.847-1.088H74.639c1.693,0,2.177-.726,2.177-1.453,0-2.056-4.474-5.8-7.86-7.377a4.277,4.277,0,0,0-.726-.121c-.967,0-3.265,3.023-4.474,5.321a2.331,2.331,0,0,1-1.453.967h-2.78V28.942c.242-4.112,0-2.66,2.66-4.353,1.33-.726,2.056-1.572,2.056-2.419,0-2.9-11.972-4.233-12.214-4.233v.121a2.591,2.591,0,0,0,.121.726c.847,3.507.847,9.8.967,14.27v5.684a135.656,135.656,0,0,1-15.479-1.453c0,1.33,2.54,5.321,4.593,5.321h.121c3.265-.363,5.684-.6,7.619-.726a50.951,50.951,0,0,1,.484,6.167c0,3.87-1.088,40.27-16.446,55.144l-.6-1.209a10.357,10.357,0,0,1-.482-3.624c.121-6.167.363-17.051.847-22.733.242-2.781,1.209-2.54,2.781-3.265,1.209-.484,2.781-1.453,2.781-2.781,0-3.144-8.707-7.014-9.07-7.014-.847,0-2.66,2.419-3.144,3.023a2.445,2.445,0,0,1-1.693,1.088H23.244c-2.056,0-11.851-1.088-16.084-1.693,0,1.693,3.386,6.409,5.321,6.409H12.6c2.3-.121,8.586-1.33,10.521-1.33h2.419a1.21,1.21,0,0,1,1.33,1.33v1.57c0,5.563-.363,19.107-.847,25.274a4.6,4.6,0,0,1-1.453,3.265c-4.956,4.474-12.7,9.916-17.532,11.126-.6.121-.847.363-.847.6,0,.847,7.014,8.586,8.343,8.586,1.088,0,1.33-2.3,1.693-2.781,4.837-5.8,11.488-13.665,14.149-17.656,2.419,9.674,10.64,16.93,22.977,18.986a121.959,121.959,0,0,0,18.865,1.088c17.414,0,36.884-1.814,37.851-1.935a3.129,3.129,0,0,0,2.3-1.935c1.693-3.628,10.037-8.949,10.037-9.916,0-.121,0-.242-.242-.242a5.46,5.46,0,0,0-1.571.361ZM65.328,59.66C64.118,83.725,62.909,98.6,52.993,98.6c-3.023,0-6.288-1.453-8.828-1.935-.363,0-.484-.121-.726-.121,8.1-10.521,11.246-24.912,12.7-38.214h7.981a1.176,1.176,0,0,1,1.209,1.33ZM14.9,23.5c-.6,0-.847.121-.847.363a.974.974,0,0,0,.6.726c3.87,2.419,9.553,7.377,12.577,12.214,1.693,2.66,3.386,3.75,4.958,3.75,2.3,0,3.991-2.177,3.991-4.958C36.184,27.009,20.1,23.5,14.9,23.5Z" transform="translate(26.807 340.27)" fill="#fff"/>
    <path id="パス_2195" data-name="パス 2195" d="M282.2,144.583a.4.4,0,0,1-.293-.09.168.168,0,0,1-.031-.212l5.987-14.008a.525.525,0,0,1,.292-.272,1.454,1.454,0,0,1,.494-.071.286.286,0,0,1,.252.1.234.234,0,0,1,.01.242l-5.986,14.008a.422.422,0,0,1-.262.242,1.492,1.492,0,0,1-.464.06Zm26.786-.947a7.718,7.718,0,0,1-3.567-.856,6.947,6.947,0,0,1-2.691-2.409,6.322,6.322,0,0,1-1.018-3.547,6.022,6.022,0,0,1,1.068-3.477,7.485,7.485,0,0,1,2.862-2.469,8.412,8.412,0,0,1,3.85-.907,10.578,10.578,0,0,1,1.7.111q.656.111,1.885.413a.8.8,0,0,1,.413.242.891.891,0,0,1,.171.443q.161,1.572.181,2.318a.217.217,0,0,1-.09.212.387.387,0,0,1-.252.091.337.337,0,0,1-.343-.281,6.415,6.415,0,0,0-.494-1.38,2.433,2.433,0,0,0-.756-.856,4.136,4.136,0,0,0-1.219-.5,6.26,6.26,0,0,0-1.542-.181,4.926,4.926,0,0,0-2.761.806,5.726,5.726,0,0,0-1.935,2.127,5.878,5.878,0,0,0-.705,2.812,7.64,7.64,0,0,0,.705,3.215,6.439,6.439,0,0,0,1.964,2.5,4.621,4.621,0,0,0,2.872.957,4.155,4.155,0,0,0,2.348-.635,5.359,5.359,0,0,0,1.663-1.885.453.453,0,0,1,.181-.191.447.447,0,0,1,.222-.07.273.273,0,0,1,.2.081.328.328,0,0,1,.081.242,3.875,3.875,0,0,1-.181.877,10.545,10.545,0,0,1-.363,1.078,2.006,2.006,0,0,1-.242.363,1.138,1.138,0,0,1-.4.181,7.753,7.753,0,0,1-1.734.433,14.247,14.247,0,0,1-2.075.151Zm10.279-.2a1.069,1.069,0,0,1-.422-.07q-.161-.07-.161-.192,0-.262.665-.464a3.1,3.1,0,0,0,1.008-.516,2.582,2.582,0,0,0,.726-1.038q1.068-2.459,1.865-4.464t1.9-5.009a5.248,5.248,0,0,0,.281-1.169l.292-.091a1.527,1.527,0,0,0,.433-.211.78.78,0,0,0,.252-.363q.091-.242.131-.322a.047.047,0,0,1,.05-.01.126.126,0,0,1,.05.03,1.725,1.725,0,0,1,.071.222,1.724,1.724,0,0,0,.07.222q1.492,4.7,3.588,10.767a3.478,3.478,0,0,0,.847,1.5,2.411,2.411,0,0,0,1.189.516,1.166,1.166,0,0,1,.494.191.358.358,0,0,1,.172.272q0,.2-.585.2l-1.089-.042q-1.129-.081-1.713-.081l-2.116.02q-.584,0-.584-.242,0-.121.192-.232a1.313,1.313,0,0,1,.473-.151q1.229-.2,1.229-.907a16.89,16.89,0,0,0-.786-3.265.249.249,0,0,0-.151-.181,1.3,1.3,0,0,0-.393-.04h-3.809q-.222,0-.343.363-.222.645-.524,1.683a7.881,7.881,0,0,0-.3,1.219.947.947,0,0,0,.333.726,1.864,1.864,0,0,0,.837.422,2.792,2.792,0,0,1,.516.181.246.246,0,0,1,.151.222q0,.222-.584.222-.363,0-.6-.02l-1.232-.019q-.343,0-.756.03t-.617.03a9.884,9.884,0,0,1-1.046.06Zm7.84-5.784a.848.848,0,0,0,.2-.02q.081-.02.081-.081l-.04-.2-1.572-4.918q-.121-.363-.181-.363-.04,0-.161.343l-1.834,4.938-.04.161a.11.11,0,0,0,.09.121,1.8,1.8,0,0,0,.333.02Zm10.158,5.784q-.584,0-.584-.222a.246.246,0,0,1,.161-.222,1.961,1.961,0,0,1,.5-.141q1.048-.181,1.25-1.572a77.563,77.563,0,0,0,.826-8.585q0-.464-.02-.665a1.677,1.677,0,0,0-.071-.375.647.647,0,0,0-.232-.292,1.841,1.841,0,0,0-.635-.383q-.312-.1-.877-.222a.656.656,0,0,1-.322-.151.335.335,0,0,1-.121-.252q0-.141.172-.181a2.421,2.421,0,0,1,.516-.04q.262,0,1.512.081t1.512.081a.389.389,0,0,1,.383.322l.141.524a9,9,0,0,0,.3,1.028l3.185,8.082a.25.25,0,0,0,.262.181.209.209,0,0,0,.2-.121l3.971-8.264q.242-.907.363-1.512.06-.262.2-.262h.726q.3,0,1.453-.1a7.727,7.727,0,0,1,.847-.06q.422,0,.422.2a.259.259,0,0,1-.111.222,2.128,2.128,0,0,1-.413.2q-.181.06-.484.181l-.705.281a.867.867,0,0,0-.353.281.672.672,0,0,0-.131.4q0,1.774.07,3.328t.211,3.628q.121,1.653.161,2.578a1.294,1.294,0,0,0,.383.958,2.262,2.262,0,0,0,1.129.473,1.961,1.961,0,0,1,.5.141.246.246,0,0,1,.161.222q0,.222-.585.222a11.876,11.876,0,0,1-1.291-.059q-.645-.04-1.069-.04-.343,0-.907.04a9.428,9.428,0,0,1-1.209.06q-.584,0-.584-.222,0-.281.665-.363a1.106,1.106,0,0,0,.806-.4,1.9,1.9,0,0,0,.222-1.048q0-2.056-.071-3.8t-.09-2.066q-.04-.5-.081-1.552-.02-.2-.121-.2-.081,0-.2.2l-4.636,9.453q-.02.121-.181.121a.2.2,0,0,1-.181-.141q-1.391-4.132-3.709-9.574a.141.141,0,0,0-.141-.1.112.112,0,0,0-.121.1q-.363,2.681-.5,4.132t-.141,3.305a1.581,1.581,0,0,0,1.31,1.57,1.959,1.959,0,0,1,.5.141.246.246,0,0,1,.161.222q0,.222-.585.222a8.271,8.271,0,0,1-1.149-.06q-.4-.038-.747-.038-.3,0-.7.04-.787.06-1.131.06Zm21.889,0q-.584,0-.585-.222a.246.246,0,0,1,.161-.222,1.961,1.961,0,0,1,.5-.141,2.156,2.156,0,0,0,1.129-.473,1.421,1.421,0,0,0,.343-1.058v-8.506a3.114,3.114,0,0,0-.252-1.431,1.265,1.265,0,0,0-.978-.585q-.665-.121-.665-.4,0-.222.585-.222.867,0,1.129.02h.847q.3,0,.705-.02t.6-.04a8.2,8.2,0,0,1,.927-.06,6.43,6.43,0,0,1,3.709.957,3.026,3.026,0,0,1,1.391,2.63,5.3,5.3,0,0,1-.494,2.308,3.754,3.754,0,0,1-1.512,1.641,4.837,4.837,0,0,1-2.51.6,1.521,1.521,0,0,1-.656-.121q-.252-.121-.252-.262a.271.271,0,0,1,.111-.181.324.324,0,0,1,.211-.1q.06,0,.313.02t.615.02a2.016,2.016,0,0,0,1.814-.988,5.247,5.247,0,0,0,.625-2.8,2.973,2.973,0,0,0-.917-2.358,3.575,3.575,0,0,0-2.449-.806q-1.29,0-1.29.847V141.1a1.972,1.972,0,0,0,.313,1.189,1.61,1.61,0,0,0,1.038.562,1.959,1.959,0,0,1,.5.141.246.246,0,0,1,.161.222q0,.222-.585.222a7.727,7.727,0,0,1-1.169-.081,4.925,4.925,0,0,0-.806-.06q-.363,0-.736.03t-.534.03q-.806.082-1.35.083Z" transform="translate(-119.643 280.351)" fill="#fff"/>
  </g>
</svg>
