<svg xmlns="http://www.w3.org/2000/svg" width="221.603" height="107.988" viewBox="0 0 221.603 107.988">
  <g id="그룹_313" data-name="그룹 313" transform="translate(-32.396 -356.545)">
    <g id="typo_exp_work_w" transform="translate(32.396 356.545)">
      <path id="パス_2190" data-name="パス 2190" d="M105.8,42.322c-1.33,0-2.9,3.265-3.023,3.386a1.752,1.752,0,0,1-1.814.967H94.309l.6-18.986c.121-3.386.6-3.628,2.3-4.593,1.088-.6,2.177-1.453,2.177-2.3,0-2.66-11.609-4.837-12.093-4.837-.242,0-.363.121-.363.242a5.236,5.236,0,0,1,.121.6c.6,3.507.6,19.832.6,23.1v6.409c-3.628-.242-7.981-.726-12.577-1.33,0,1.453,2.781,6.046,4.716,6.046h.121c3.023-.363,5.442-.6,7.619-.726-.484,17.535-2.419,34.586-9.916,48.977a9.923,9.923,0,0,0-2.177.363c-4.958,1.209-11.367,2.54-17.535,3.75,0-3.023-.121-6.046-.121-9.191L75.2,93.721c1.693-.121,2.177-.726,2.177-1.453,0-2.419-5.684-7.014-7.619-7.014-1.088,0-3.75,4.593-3.87,4.716a2.151,2.151,0,0,1-1.33.967l-6.772.242V80.539h8.949v.847a2.509,2.509,0,0,0,2.66,2.781c1.33,0,3.75-.967,3.75-3.507v-.242c-.363-5.442-.726-12.456-.726-17.293,0-5.2.242-5.684,1.693-6.772.967-.726,2.3-1.572,2.3-2.781,0-2.54-7.014-6.288-7.377-6.288a1.191,1.191,0,0,0-.967.363,11.9,11.9,0,0,0-2.056,2.66,1.711,1.711,0,0,1-1.453.847H57.79c0-3.386.121-6.409.121-8.949H78.832c1.453,0,1.814-.726,1.814-1.33,0-3.265-7.256-7.74-7.74-7.74-.6,0-3.507,2.781-4.958,5.079a2.609,2.609,0,0,1-1.209.967H57.91V37.488c.121-4.837.242-5.079,1.814-5.8.847-.484,1.453-1.088,1.453-1.572s-.484-.967-1.33-1.209l-.726-.242c3.75-.726,7.014-1.453,9.674-2.177.242,0,.484-.121.847-.121a2.888,2.888,0,0,1,1.088.242,7.06,7.06,0,0,0,2.419.484c.967,0,1.33-.363,1.33-1.088,0-2.54-5.8-8.1-6.651-8.1-.242,0-.484.242-.847.6-2.419,2.419-9.07,6.167-34.707,11.851a1.719,1.719,0,0,0-.726.242c2.66-5.2,3.023-5.563,4.593-6.046,2.419-.726,3.507-1.572,3.507-2.3,0-2.419-11.126-6.167-11.851-6.167-.363,0-.242.242-.363.847a45.6,45.6,0,0,1-1.572,8.343C20.3,40.869,12.2,58.165,4.459,67.961a2.834,2.834,0,0,0-.847,1.572c0,.121.121.121.242.121,1.33,0,8.707-7.377,16.2-18.865V61.31c0,15.6-.847,40.511-2.177,57.442v.722c0,2.781,1.572,3.991,3.265,3.991,1.935,0,5.079-1.453,5.079-4.837v-.24c-.242-6.772-.242-14.27-.242-21.889,0-15.963.363-32.409.726-43.656.121-3.87.121-3.87,2.66-5.079,1.572-.726,2.54-1.453,2.54-2.177,0-1.33-3.386-2.056-7.014-2.781,2.056-3.507,4.112-7.135,6.046-10.884a5.457,5.457,0,0,0,1.572.121c6.53-.484,13.06-1.33,19.107-2.177.242,2.9.363,6.167.363,9.312a169.044,169.044,0,0,1-20.921-1.693c0,1.33,3.386,5.684,4.837,5.684h.121A118.35,118.35,0,0,1,51.984,42.2v8.949H45.7l-.121-.121c-2.056-1.693-8.343-4.593-9.07-4.593-.242,0-.242,0-.242.242a2.127,2.127,0,0,0,.121.726,62.6,62.6,0,0,1,1.33,12.214c0,5.563-.242,15.116-.967,23.339v.484a2.473,2.473,0,0,0,2.66,2.66c1.814,0,3.991-1.33,3.991-3.507V80.537h8.586c0,3.507-.121,7.256-.121,10.884-5.2,0-11.972-.484-20.558-1.33,0,1.209,3.023,5.442,4.958,5.442h.121c7.256-.847,11.488-1.088,15.479-1.209,0,3.386-.121,6.893-.121,10.279-5.442.967-14.27,2.419-18.623,2.419a11.776,11.776,0,0,1-2.9-.242c-.121,0-.363-.121-.484-.121a.443.443,0,0,0-.484.484c0,.484,4.353,8.586,5.684,8.586.6,0,.967-1.088,1.814-1.33,6.772-1.935,27.209-7.86,38.576-12.939l1.453-.726a61.862,61.862,0,0,1-18.5,20.558c-1.209.847-2.3,1.935-2.3,2.419,0,.242.121.242.363.242.847,0,10.884-4.593,18.865-13.3,2.9,2.056,11.609,6.772,12.577,9.191.363.847.726.967,1.33.967,9.916-.484,17.414-8.343,19.47-29.749.967-10.4.726-19.107.967-33.5,0-3.265.121-3.628,2.66-5.079,1.693-.967,2.419-1.935,2.419-2.9,0-1.936-6.534-7.257-8.832-7.257Zm-2.541,9.553c-.242,10.4.242,27.572-1.088,38.456-2.056,16.93-6.893,21.889-14.633,21.889-3.265,0-7.256-.967-11.73-2.3C90.195,94.081,93.1,72.677,94.187,49.942h7.5c.847,0,1.57.24,1.57,1.933ZM66.977,66.75c0,3.628,0,7.377-.121,10.763H57.79V66.75ZM51.984,77.512H43.4c0-3.386-.121-7.256-.121-10.763h8.707ZM66.977,63.847H57.79V54.294h7.617a1.23,1.23,0,0,1,1.33,1.33c.121,2.419.24,5.2.24,8.223Zm-15,0H43.156c0-1.693.121-3.265.121-4.474.121-3.991.121-3.386,1.693-4.593.242-.121.363-.363.484-.484h6.53Z" transform="translate(-3.612 -15.962)" fill="#fff"/>
      <path id="パス_2192" data-name="パス 2192" d="M282.2,145.056a.4.4,0,0,1-.293-.09.168.168,0,0,1-.031-.212l5.987-14.008a.525.525,0,0,1,.292-.272,1.453,1.453,0,0,1,.494-.071.286.286,0,0,1,.252.1.234.234,0,0,1,.01.242l-5.986,14.008a.422.422,0,0,1-.262.242,1.492,1.492,0,0,1-.464.06Zm25.335-.927q-.06,0-.281-.562L302.9,132.64a2.282,2.282,0,0,0-1.453-1.33,2.712,2.712,0,0,1-.5-.222q-.161-.1-.161-.222,0-.222.584-.222l.847.02q.6.04.947.04l1.209-.02q.262-.02.665-.02.584,0,.585.222a.246.246,0,0,1-.151.222,2.792,2.792,0,0,1-.516.181q-.4.1-.4.665a2.006,2.006,0,0,0,.071.524q.07.262.09.343.907,2.338,1.594,3.981t1.713,3.941q.081.2.161.2t.141-.181l1.572-3.89a1.378,1.378,0,0,0,.121-.464,2.029,2.029,0,0,0-.161-.584l-1.149-2.862a2.577,2.577,0,0,0-.786-1.048,3.091,3.091,0,0,0-1.129-.6,1.846,1.846,0,0,1-.5-.212.3.3,0,0,1-.161-.232q0-.222.585-.222l.867.02q.645.04,1.028.04l.927-.02q.242-.02.625-.02.585,0,.585.222a.238.238,0,0,1-.09.181,1.572,1.572,0,0,1-.272.181q-.464.2-.464.484a.661.661,0,0,0,.04.161q.141.4.413,1.1t.494,1.179q.02.04.07.151t.111.111q.06,0,.181-.262a18.726,18.726,0,0,0,.806-2.278.446.446,0,0,0,.02-.141.4.4,0,0,0-.111-.292,1.637,1.637,0,0,0-.312-.232.858.858,0,0,0-.119-.079.592.592,0,0,1-.151-.121.214.214,0,0,1-.051-.141q0-.222.585-.222l.645.02a2.778,2.778,0,0,0,.4.02l.585-.02a5.653,5.653,0,0,1,.6-.04q.584,0,.585.222,0,.262-.665.4a2.4,2.4,0,0,0-.846.322,2.323,2.323,0,0,0-.524.645q-.161.281-.494,1.048t-.574,1.431a1.753,1.753,0,0,0-.121.422.708.708,0,0,0,0,.343l2.076,5.34q.04.081.06.081.06,0,.161-.2.766-2.036,2.459-7.8a2.283,2.283,0,0,0,.121-.726.791.791,0,0,0-.6-.867q-.665-.181-.665-.4t.584-.222l1.453.02q.383,0,1.028-.04l.786-.02q.585,0,.585.222,0,.262-.665.4a2.5,2.5,0,0,0-1.653,1.774l-3.57,10.541a2,2,0,0,1-.131.292q-.091.172-.192.172-.081,0-.181-.121a1.059,1.059,0,0,1-.161-.262q-.746-1.673-1.571-3.89l-.907-2.338q-.06-.121-.081-.121-.04,0-.141.242-.685,1.633-1.159,2.842t-1.14,3.1a1.979,1.979,0,0,1-.2.433q-.121.192-.242.192Zm22.231-.041a6.845,6.845,0,0,1-3.314-.836,6.4,6.4,0,0,1-2.459-2.348,6.512,6.512,0,0,1-.917-3.447,7.645,7.645,0,0,1,.806-3.469,6.389,6.389,0,0,1,2.358-2.59,7.265,7.265,0,0,1,7.024-.141,6.4,6.4,0,0,1,2.459,2.348,6.512,6.512,0,0,1,.917,3.447,7.645,7.645,0,0,1-.806,3.469,6.389,6.389,0,0,1-2.358,2.59A6.814,6.814,0,0,1,329.762,144.087Zm.3-.806a4.269,4.269,0,0,0,3.447-1.4,5.746,5.746,0,0,0,1.189-3.84,9.608,9.608,0,0,0-.585-3.446,5.508,5.508,0,0,0-1.723-2.428,4.341,4.341,0,0,0-2.771-.9,4.275,4.275,0,0,0-3.426,1.38,5.631,5.631,0,0,0-1.19,3.8,9.927,9.927,0,0,0,.574,3.469,5.5,5.5,0,0,0,1.712,2.459,4.309,4.309,0,0,0,2.773.907Zm23.944.947a4.759,4.759,0,0,1-1.6-.242,2.719,2.719,0,0,1-1.179-.847q-.927-1.147-1.53-1.964t-1.532-2.328a2.053,2.053,0,0,0-.867-.786,4.838,4.838,0,0,0-1.594-.422h-.039q-.262,0-.262.4v3.546a1.546,1.546,0,0,0,1.35,1.734,1.96,1.96,0,0,1,.5.141.246.246,0,0,1,.161.222q0,.222-.585.222a7.727,7.727,0,0,1-1.169-.081,4.925,4.925,0,0,0-.806-.06q-.363,0-.736.03t-.534.03q-.806.081-1.35.081-.584,0-.585-.222a.246.246,0,0,1,.161-.222,1.96,1.96,0,0,1,.5-.141,2.156,2.156,0,0,0,1.129-.473,1.421,1.421,0,0,0,.342-1.059V133.2a6.969,6.969,0,0,0-.07-1.2.75.75,0,0,0-.322-.516,2.015,2.015,0,0,0-.837-.222.958.958,0,0,1-.494-.141.332.332,0,0,1-.171-.262q0-.222.585-.222.867,0,1.129.02h.846q.3,0,.907-.04,1.088-.06,1.411-.06a5.722,5.722,0,0,1,3.375.837,2.85,2.85,0,0,1,1.159,2.469,3.72,3.72,0,0,1-2.378,3.386.094.094,0,0,0-.06.1.344.344,0,0,0,.06.161q1.27,1.915,2.046,2.943a16.06,16.06,0,0,0,2.046,2.177,2.344,2.344,0,0,0,.987.546,5.9,5.9,0,0,0,1.33.121q.3,0,.3.222,0,.383-.534.544a3.78,3.78,0,0,1-1.1.16Zm-7.538-7.054a3.038,3.038,0,0,0,1.582-.413,2.842,2.842,0,0,0,1.068-1.1,3.031,3.031,0,0,0,.375-1.471,3.612,3.612,0,0,0-.6-2.227,2.83,2.83,0,0,0-2.358-.8.861.861,0,0,0-.837.393,3.805,3.805,0,0,0-.252,1.482q-.04,1.371-.04,3.426,0,.464.242.584a2.007,2.007,0,0,0,.825.123Zm13.907,6.733q-.584,0-.585-.222a.246.246,0,0,1,.161-.222,1.96,1.96,0,0,1,.5-.141,1.828,1.828,0,0,0,1.058-.473,1.617,1.617,0,0,0,.292-1.078V132.7a1.388,1.388,0,0,0-.292-.988,1.975,1.975,0,0,0-1.058-.443q-.665-.121-.665-.4,0-.222.585-.222l1.25.02q.3.02,1.008.02.563,0,.786-.02l1.169-.02q.585,0,.585.222,0,.281-.665.4a1.238,1.238,0,0,0-.9.443,1.987,1.987,0,0,0-.192.988v3.769q0,.383.1.383a.51.51,0,0,0,.262-.111,1.454,1.454,0,0,0,.281-.252l4.031-4.112a.871.871,0,0,0,.3-.6.47.47,0,0,0-.382-.464,2.485,2.485,0,0,1-.484-.181.247.247,0,0,1-.141-.222q0-.222.585-.222h1.088q.464,0,2.578-.06l.685-.02a.726.726,0,0,1,.322.06.182.182,0,0,1,.121.161q0,.281-.665.4a6.422,6.422,0,0,0-3.064,1.33q-1.088.907-1.945,1.753t-1.925,2.016a.137.137,0,0,0-.04.1.393.393,0,0,0,.141.262l4.879,5.2a7.029,7.029,0,0,0,1.048,1.018,3.6,3.6,0,0,0,1.169.413,2.218,2.218,0,0,1,.516.161.234.234,0,0,1,.151.2q0,.222-.585.222-.806,0-1.453-.06-.806-.04-1.35-.04h-.562q-.262.02-1.068.02-.584,0-.585-.222a.23.23,0,0,1,.121-.212,1.5,1.5,0,0,1,.422-.131q.563-.141.563-.4a.992.992,0,0,0-.3-.5l-4.273-4.716q-.343-.343-.464-.343-.081,0-.081.281,0,1.229.1,4.011a2.485,2.485,0,0,0,.313,1.169,1.336,1.336,0,0,0,.977.562,1.961,1.961,0,0,1,.5.141.246.246,0,0,1,.161.222q0,.222-.585.222a7.725,7.725,0,0,1-1.169-.081,4.925,4.925,0,0,0-.806-.06q-.343,0-.7.03t-.516.03a12.942,12.942,0,0,1-1.327.084Z" transform="translate(-151.433 -76.761)" fill="#fff"/>
    </g>
    <path id="패스_831" data-name="패스 831" d="M4.114,2.266a2.967,2.967,0,0,1,.795.231,2.241,2.241,0,0,1,.628.419,1.834,1.834,0,0,1,.408.575A1.7,1.7,0,0,1,5.9,4.957a1.87,1.87,0,0,1-.521.618,2.624,2.624,0,0,1-.784.408,3.073,3.073,0,0,1-.978.15,3.06,3.06,0,0,1-.983-.15,2.637,2.637,0,0,1-.779-.408,1.812,1.812,0,0,1-.516-.618,1.7,1.7,0,0,1-.183-.779,1.631,1.631,0,0,1,.161-.72,1.921,1.921,0,0,1,.446-.591,2.3,2.3,0,0,1,.677-.419,2.971,2.971,0,0,1,.865-.2.329.329,0,0,0-.118-.2,1.17,1.17,0,0,0-.344-.167l.183-.312.279.054.328.064.328.064q.161.032.29.064-.032.086-.075.2A1.39,1.39,0,0,0,4.114,2.266Zm.924,1.869a1.478,1.478,0,0,0-.107-.564,1.37,1.37,0,0,0-.3-.457,1.4,1.4,0,0,0-.446-.3,1.371,1.371,0,0,0-.542-.107,1.478,1.478,0,0,0-.564.107,1.357,1.357,0,0,0-.757.757,1.478,1.478,0,0,0-.107.564A1.427,1.427,0,0,0,2.32,4.7a1.333,1.333,0,0,0,.757.73,1.546,1.546,0,0,0,.564.1,1.475,1.475,0,0,0,.548-.1,1.3,1.3,0,0,0,.446-.29,1.381,1.381,0,0,0,.3-.44A1.427,1.427,0,0,0,5.038,4.135ZM6.725.858q.258.032.569.081t.623.107l.6.113q.285.054.5.086-.021.1-.043.236t-.043.285q-.021.145-.032.263T8.884,2.2V4.683q0,.193-.016.457t-.043.521q-.027.258-.059.489a3.647,3.647,0,0,1-.064.36l-.741.118a2.545,2.545,0,0,1-.032-.29q-.011-.172-.027-.36t-.021-.371q-.005-.183-.005-.333V2.18a.629.629,0,0,0-.317-.542,3.416,3.416,0,0,0-1.026-.381Zm1.01,6.574q-.258-.011-.591-.011t-.682.016q-.349.016-.693.038t-.623.043q-.107.011-.3.021t-.408.032q-.22.021-.451.054t-.424.064l-.5-.859q.118.021.328.048t.44.048q.231.021.462.038t.4.016h.924q.516,0,1.074-.016t1.133-.048q.575-.032,1.09-.075l-.064.3q-.021.129-.048.269t-.048.236l-.14.859q.086-.011.15-.016t.129-.016l-.075.677q-.612-.032-1.225-.032T6.44,9.13q-.542.011-.988.027l-.714.027a1.428,1.428,0,0,0-.011.177V10.2q0,.172.043.2a.554.554,0,0,0,.236.043q.387.011.956-.005t1.182-.059q.612-.043,1.2-.107t1.031-.14L9.217,11q-.58-.021-1.23-.027T6.7,10.978q-.634.011-1.225.027T4.4,11.042a.623.623,0,0,1-.532-.15.676.676,0,0,1-.145-.451V9.7A1.535,1.535,0,0,0,3.7,9.382a.435.435,0,0,0-.107-.209.667.667,0,0,0-.242-.15q-.161-.064-.419-.15l.183-.333q.548.054,1.139.075t1.187.021q.6,0,1.171-.016T7.7,8.571Zm11.625.72q0,.333-.016.768t-.038.87q-.021.435-.054.827t-.064.628l-.741.1q-.021-.172-.038-.462t-.032-.618q-.016-.328-.021-.677t-.005-.661V2.18a.633.633,0,0,0-.306-.542,3.254,3.254,0,0,0-1.015-.381l.172-.4q.269.032.58.081t.623.107l.6.113q.285.054.489.086-.021.1-.048.236t-.043.285q-.016.145-.027.263T19.36,2.2V5.66q.483-.043,1.085-.1t1.085-.145l-.118.87q-.183-.011-.44-.011H19.36Zm-1.719-4.1h-.6q-.354,0-.768.011l-.854.022-.849.022-.752.021q-.344.011-.569.021l-.338.027q-.209.016-.435.038t-.43.048q-.2.027-.333.048L11.3,3.4q.14.032.354.059t.44.048q.226.021.44.038t.365.016q.365,0,.972-.016t1.3-.054q.693-.038,1.386-.1t1.219-.156ZM17,6.659a1.566,1.566,0,0,1-.183.736,1.991,1.991,0,0,1-.5.612,2.381,2.381,0,0,1-.752.414,2.825,2.825,0,0,1-.929.15,2.769,2.769,0,0,1-.94-.156A2.532,2.532,0,0,1,12.941,8a1.931,1.931,0,0,1-.5-.607,1.566,1.566,0,0,1-.183-.736,1.687,1.687,0,0,1,.183-.784,1.854,1.854,0,0,1,.5-.607,2.342,2.342,0,0,1,.752-.392,3.059,3.059,0,0,1,.94-.14,2.835,2.835,0,0,1,.961.156,2.394,2.394,0,0,1,.747.419,1.889,1.889,0,0,1,.483.612A1.645,1.645,0,0,1,17,6.659Zm-3.674-.054a1.37,1.37,0,0,0,.387.961,1.428,1.428,0,0,0,.424.3,1.217,1.217,0,0,0,.521.113,1.181,1.181,0,0,0,.494-.107,1.348,1.348,0,0,0,.414-.29,1.41,1.41,0,0,0,.285-.435A1.409,1.409,0,0,0,15.858,6.1a1.316,1.316,0,0,0-.682-.72,1.217,1.217,0,0,0-.521-.113,1.31,1.31,0,0,0-.951.371A1.3,1.3,0,0,0,13.322,6.605Zm2.729-4h-.4q-.215,0-.43.005l-.414.011q-.2.005-.338.005-.075,0-.215.005t-.312.021L13.6,2.69q-.172.016-.312.038L12.85,1.9q.129.032.322.064l.4.064q.209.032.408.048t.338.016q.129,0,.354-.011t.489-.038q.263-.027.537-.059t.521-.064Zm13.183-.43a.633.633,0,0,0-.306-.542,3.254,3.254,0,0,0-1.015-.381l.161-.4q.269.032.585.081t.628.107l.591.113q.279.054.483.086-.021.1-.043.236t-.038.285q-.016.145-.027.263t-.011.172V5.177q.462-.032,1.063-.1t1.1-.15l-.118.87q-.193-.011-.451-.011h-1.59V8.152q0,.333-.011.768t-.032.87q-.021.435-.054.827t-.075.628l-.741.1q-.021-.172-.038-.462t-.032-.618q-.016-.328-.021-.677t-.005-.661V6.874q-.494.193-1.112.4t-1.262.387q-.645.183-1.257.328t-1.1.209a.951.951,0,0,1-.8-.134.957.957,0,0,1-.242-.736V4.2a1.573,1.573,0,0,0-.032-.338.493.493,0,0,0-.134-.247.919.919,0,0,0-.29-.183,4.218,4.218,0,0,0-.489-.167l.161-.4a11.146,11.146,0,0,0,1.305.124q.693.027,1.391,0t1.359-.1q.661-.07,1.208-.167l-.161.827q-1.01-.043-1.842-.021t-1.466.075v3.5a.334.334,0,0,0,.07.247.233.233,0,0,0,.188.054,8.092,8.092,0,0,0,.929-.124q.564-.1,1.192-.242t1.257-.306q.628-.167,1.123-.328Z" transform="translate(180.426 431.895)" fill="#fff"/>
  </g>
</svg>
