<svg xmlns="http://www.w3.org/2000/svg" width="118" height="27.68" viewBox="0 0 118 27.68"><defs><style>.cls-1{fill:#fff;}</style></defs><title>header_logo_w</title><g id="レイヤー_2" data-name="レイヤー 2"><g id="レイヤー_1-2" data-name="レイヤー 1"><path class="cls-1" d="M26.93,9.48,23.77,5.35,15.71,11l.72-11L11.26.67l.83,9.79L3,4.36,1,9.16l8.89,4.18L0,18.2l3.16,4.13,8.06-5.61-.72,11L15.67,27l-.83-9.79L24,23.32l2-4.81-8.89-4.18ZM13.47,13.83h0Z"/><path class="cls-1" d="M33.92,18.32a6.7,6.7,0,0,1-.33-2.64.47.47,0,0,1,.65,0c.42,1.31,1.29,2.55,2.52,2.55a1.25,1.25,0,0,0,1.31-1.31c0-.86-.77-1.43-1.59-1.82C35.28,14.46,34,13.59,34,12.1c0-1.82,1.54-2.9,3.48-2.9a5.08,5.08,0,0,1,2.17.47A5.43,5.43,0,0,1,40,11.94a.47.47,0,0,1-.63.12c-.35-1.08-1.1-2-2-2a1.25,1.25,0,0,0-1.31,1.22c0,.68.68,1.17,1.57,1.59,1.26.61,2.59,1.4,2.59,3.25,0,2-1.8,2.92-3.65,2.92a4.39,4.39,0,0,1-2.66-.75"/><path class="cls-1" d="M44.34,15.92c0,1.59.09,1.82.82,2l.32,0c.15.15.13.54,0,.62-.75,0-3.69,0-4.59,0-.17-.09-.19-.47,0-.62l.47-.06c.73-.11.82-.34.82-1.93V12.76c0-1,0-1.22-.54-1.55l-.26-.15a.57.57,0,0,1,0-.49A14.6,14.6,0,0,0,44.1,9.41a.3.3,0,0,1,.28.17,9.74,9.74,0,0,0,0,1c0,.15.06.19.19.21a5.26,5.26,0,0,1,2.94-1.07c1.74,0,2.55,1.2,2.55,2.88v3.33c0,1.59.09,1.82.81,1.93l.49.06c.15.15.13.54,0,.62-.9,0-3.86,0-4.61,0-.17-.09-.19-.47,0-.62l.32,0c.73-.13.82-.37.82-2V13c0-1.09-.43-2-1.72-2a1.75,1.75,0,0,0-1.42.67c-.28.39-.3.58-.3,1.37Z"/><path class="cls-1" d="M60.45,14.14a4.4,4.4,0,0,1-4.7,4.63,4.24,4.24,0,0,1-4.53-4.38,4.56,4.56,0,0,1,4.7-4.68,4.31,4.31,0,0,1,4.53,4.42M56,17.91c1.48,0,1.91-1.76,1.91-3.41,0-1.8-.62-3.93-2.21-3.93-1.09,0-2,1.12-2,3.5,0,2,.71,3.84,2.25,3.84"/><path class="cls-1" d="M69.7,10.66c-.36.09-.54.15-.54.28a1.4,1.4,0,0,0,.13.51c.39,1.05,1.4,3.24,1.8,4.16.36-.73,1.2-2.88,1.5-3.71a3.33,3.33,0,0,0,.24-.9c0-.13-.15-.21-.41-.28l-.73-.15a.44.44,0,0,1,0-.62c.73,0,2.77,0,3.45,0,.19.09.21.45.06.62l-.41.11c-.56.15-.75.28-1.2,1.33l-1.31,3c-.47,1.09-1,2.49-1.46,3.65a.51.51,0,0,1-.36.13.6.6,0,0,1-.39-.13c-.77-1.89-1.91-4.42-2.55-5.84-.64,1.37-2.12,4.63-2.53,5.84a.51.51,0,0,1-.36.13.6.6,0,0,1-.39-.13c-.17-.47-.62-1.61-1.07-2.6s-1.12-2.64-2-4.61a1.19,1.19,0,0,0-1-.77l-.36-.09a.46.46,0,0,1,.06-.62c.77,0,3.82,0,4.4,0a.46.46,0,0,1,0,.62l-.37.11c-.32.09-.51.15-.51.3a2.47,2.47,0,0,0,.24.69l.56,1.4c.41,1,.9,2.14,1.07,2.55.21-.43.56-1.22.77-1.72l.6-1.42a1.84,1.84,0,0,0,.21-1.14c-.19-.47-.45-.56-.94-.67l-.41-.11a.41.41,0,0,1,.06-.62c.56,0,3.69,0,4.4,0a.4.4,0,0,1,0,.62Z"/><path class="cls-1" d="M79.94,12.76c0-1,0-1.14-.54-1.52l-.26-.17a.46.46,0,0,1,0-.49A11.91,11.91,0,0,0,82,9.31a.34.34,0,0,1,.34.22,5.82,5.82,0,0,0-.11.84.27.27,0,0,0,.17.28A6.51,6.51,0,0,1,85,9.71a3.65,3.65,0,0,1,3.69,4,4.92,4.92,0,0,1-5.26,5.09,6.21,6.21,0,0,1-.94-.09c-.19,0-.32.17-.32.6v2.1c0,1.59.09,1.82.84,1.91l.77.09c.15.15.13.54,0,.62-1.12,0-4.29,0-5.15,0-.17-.09-.19-.47,0-.62l.56-.06c.73-.11.82-.34.82-1.93Zm2.25,3.35a1.59,1.59,0,0,0,.69,1.37,2.13,2.13,0,0,0,1.14.43c1.48,0,2.3-1.55,2.3-3.52S85.26,11,83.59,11a1.63,1.63,0,0,0-1.16.43c-.17.19-.24.56-.24,1.46Z"/><path class="cls-1" d="M92.06,13.38c-.41,0-.45,0-.45.28a3.28,3.28,0,0,0,3.24,3.48,2.22,2.22,0,0,0,2.06-1.07.41.41,0,0,1,.47.34,3.87,3.87,0,0,1-3.63,2.36,4.05,4.05,0,0,1-4.14-4.29,4.54,4.54,0,0,1,4.53-4.76,3,3,0,0,1,3.22,2.9,1,1,0,0,1-.11.49c-.13.19-.62.28-1.48.28Zm2-.86a2.26,2.26,0,0,0,1.05-.15.54.54,0,0,0,.21-.45,1.32,1.32,0,0,0-1.42-1.4,2.2,2.2,0,0,0-2.1,1.85c0,.09,0,.15.3.15Z"/><path class="cls-1" d="M105.08,15.74c-.07,1.25.26,1.89,1,1.89a2,2,0,0,0,.73-.24c.11,0,.26.24.19.43a3,3,0,0,1-2.15.94,2.05,2.05,0,0,1-1.54-.6c-.15-.15-.24-.26-.34-.26s-.26.11-.58.3a3.47,3.47,0,0,1-1.82.56,2,2,0,0,1-2.19-2.08c0-.77.3-1.48,1.78-2,.75-.26,1.57-.56,2.36-.86.43-.15.49-.34.49-.56l0-.56c0-1.09-.26-2-1.31-2a1.05,1.05,0,0,0-1.14.94.92.92,0,0,1-.41.77,3,3,0,0,1-1.37.39c-.28,0-.41-.15-.41-.34s.13-.71.84-1.37a5.89,5.89,0,0,1,3.31-1.35c1.7,0,2.75.79,2.66,2.68ZM103,15c0-.24-.06-.37-.17-.37a3.54,3.54,0,0,0-.94.26,1.41,1.41,0,0,0-1.16,1.44,1.2,1.2,0,0,0,1.2,1.24,1,1,0,0,0,1-1Z"/><path class="cls-1" d="M108.36,6.71c0-1.44,0-1.59-.56-1.91l-.24-.15c-.13-.09-.15-.43,0-.49.82-.24,1.93-.69,2.81-1a.29.29,0,0,1,.3.17c0,.86-.06,2.19-.06,3.11v6.8c0,.26.06.3.47.3s.79-.13,1.39-.82l.84-.92c.45-.49.62-.73.62-.84s-.09-.17-.34-.21l-.58-.06a.4.4,0,0,1,0-.64h.62A31.65,31.65,0,0,0,117,9.84c.19.09.19.47,0,.64l-.39.07a3,3,0,0,0-1.57.73c-.75.66-1.48,1.29-1.82,1.65a.3.3,0,0,0,0,.43,37.38,37.38,0,0,0,3.07,3.95,2.2,2.2,0,0,0,1.22.58l.21,0c.13.17.13.54-.06.62-.71,0-3.82,0-4.7,0a.39.39,0,0,1,0-.62l.22,0c.21,0,.41-.15.41-.26a1,1,0,0,0-.26-.52l-1.76-2.47a.86.86,0,0,0-.66-.43c-.26,0-.32.08-.32.66v1c0,1.59.08,1.82.81,1.93l.47.06c.15.15.13.54,0,.62-.9,0-3.84,0-4.72,0-.17-.09-.19-.47,0-.62l.45-.06c.73-.11.82-.34.82-1.93Z"/><path class="cls-1" d="M35.63,22.73a1,1,0,0,1-1,1,.93.93,0,0,1-1-1,1,1,0,0,1,1-1,.94.94,0,0,1,1,1m-1,.82c.32,0,.42-.38.42-.74s-.14-.86-.48-.86-.43.24-.43.76.16.84.49.84"/><path class="cls-1" d="M37.76,23c0,.26,0,.5.12.5a.79.79,0,0,0,.2,0,.11.11,0,0,1,0,.16,3,3,0,0,0-.77.18.05.05,0,0,1,0,0,.75.75,0,0,0,0-.17s0-.05,0-.05a1.26,1.26,0,0,1-.64.23c-.42,0-.56-.23-.56-.62v-.73c0-.33,0-.36-.14-.4l-.07,0s0-.11,0-.12a2.5,2.5,0,0,0,.65-.08.06.06,0,0,1,0,0,3.06,3.06,0,0,0,0,.4v.72c0,.28.05.53.38.53a.47.47,0,0,0,.31-.12s.06-.09.06-.26v-.71c0-.3,0-.32-.21-.38L37,22a.09.09,0,0,1,0-.13,2.64,2.64,0,0,0,.74-.08.06.06,0,0,1,0,0c0,.09,0,.22,0,.4Z"/><path class="cls-1" d="M39,22c-.08,0-.09,0-.09.16v.72c0,.3,0,.56.34.56a.36.36,0,0,0,.22-.08.07.07,0,0,1,.06.09.74.74,0,0,1-.6.26c-.45,0-.53-.26-.53-.59v-1c0-.16,0-.17-.08-.17h-.16a.08.08,0,0,1,0-.13,1.48,1.48,0,0,0,.37-.2.87.87,0,0,0,.26-.29.1.1,0,0,1,.13,0v.28c0,.08,0,.09.09.09h.46s0,.05,0,.1a.15.15,0,0,1-.06.12Z"/><path class="cls-1" d="M41.49,22.92c0,.43,0,.57.11.57a.57.57,0,0,0,.2,0s0,.14,0,.17a2.94,2.94,0,0,0-.74.18.08.08,0,0,1-.06-.05v-.07a.38.38,0,0,0,0-.13h0a.9.9,0,0,1-.54.21.87.87,0,0,1-.87-.9,1.07,1.07,0,0,1,1.12-1.08.93.93,0,0,1,.27,0s0,0,0-.08v-.61c0-.31,0-.35-.11-.41l-.07,0s0-.09,0-.11.43-.15.61-.23a.06.06,0,0,1,.07,0c0,.19,0,.48,0,.68ZM41,22.34a.36.36,0,0,0-.06-.22.38.38,0,0,0-.31-.16c-.32,0-.52.31-.52.71s.25.8.59.8a.44.44,0,0,0,.28-.1.19.19,0,0,0,0-.13Z"/><path class="cls-1" d="M43.9,22.73a1,1,0,0,1-1,1,.93.93,0,0,1-1-1,1,1,0,0,1,1-1,.94.94,0,0,1,1,1m-1,.82c.32,0,.42-.38.42-.74s-.14-.86-.48-.86-.43.24-.43.76.15.84.49.84"/><path class="cls-1" d="M46.12,22.73a1,1,0,0,1-1,1,.93.93,0,0,1-1-1,1,1,0,0,1,1-1,.94.94,0,0,1,1,1m-1,.82c.32,0,.42-.38.42-.74s-.14-.86-.48-.86-.43.24-.43.76.15.84.49.84"/><path class="cls-1" d="M46.58,22.43c0-.21,0-.27-.12-.34l-.06,0a.12.12,0,0,1,0-.11A3.32,3.32,0,0,0,47,21.7a.07.07,0,0,1,.07,0c0,.09,0,.17,0,.21a0,0,0,0,0,0,.06c.15-.1.3-.24.46-.24a.23.23,0,0,1,.26.23.26.26,0,0,1-.26.27.24.24,0,0,1-.13,0,.42.42,0,0,0-.22-.09c-.11,0-.14.11-.14.34v.64c0,.35,0,.4.18.42l.18,0s0,.12,0,.14h-1.1s0-.1,0-.14h.08c.16,0,.18-.07.18-.42Z"/><path class="cls-1" d="M49.18,21.11c0-.31,0-.35-.12-.42l-.05,0s0-.09,0-.11.43-.15.61-.23a.06.06,0,0,1,.07,0c0,.19,0,.48,0,.68v2.08c0,.35,0,.4.18.42h.1s0,.12,0,.14h-1s0-.1,0-.14H49c.16,0,.18-.07.18-.42Z"/><path class="cls-1" d="M50.83,23.12c0,.35,0,.4.18.42h.08s0,.12,0,.14h-1s0-.1,0-.14h.08c.16,0,.18-.07.18-.42v-.69c0-.21,0-.27-.12-.34l-.06,0a.13.13,0,0,1,0-.11,2.83,2.83,0,0,0,.61-.25.09.09,0,0,1,.07,0c0,.16,0,.38,0,.57Zm-.55-2.27a.3.3,0,1,1,.3.3.29.29,0,0,1-.3-.3"/><path class="cls-1" d="M52.09,22.05c-.1,0-.1,0-.1.15v.92c0,.35,0,.4.18.42l.18,0s0,.12,0,.14H51.23s0-.1,0-.14h.1c.16,0,.18-.07.18-.42v-.93c0-.13,0-.14-.08-.14h-.17a.07.07,0,0,1,0-.11l.2-.1a.11.11,0,0,0,.07-.1v-.08a2.09,2.09,0,0,1,.1-.67.91.91,0,0,1,.88-.66c.32,0,.53.15.53.34a.23.23,0,0,1-.23.23.15.15,0,0,1-.14-.07c-.15-.21-.25-.31-.37-.31s-.29.32-.29,1v.14c0,.14,0,.15.1.15h.49a.09.09,0,0,1,0,.07.15.15,0,0,1-.07.15Z"/><path class="cls-1" d="M53.08,22.57c-.09,0-.1,0-.1.06a.72.72,0,0,0,.71.76.49.49,0,0,0,.45-.24.09.09,0,0,1,.1.08.84.84,0,0,1-.79.52.89.89,0,0,1-.9-.94,1,1,0,0,1,1-1,.66.66,0,0,1,.7.63.22.22,0,0,1,0,.11s-.14.06-.32.06Zm.43-.19a.49.49,0,0,0,.23,0,.12.12,0,0,0,0-.1.29.29,0,0,0-.31-.3.48.48,0,0,0-.46.4s0,0,.07,0Z"/><path class="cls-1" d="M54.46,23.59a1.36,1.36,0,0,1-.07-.53.1.1,0,0,1,.13,0c.08.26.26.51.51.51a.25.25,0,0,0,.26-.26c0-.17-.15-.29-.32-.36s-.5-.29-.5-.59.31-.58.7-.58a1,1,0,0,1,.44.09,1.08,1.08,0,0,1,.07.45.1.1,0,0,1-.13,0c-.07-.22-.22-.39-.4-.39a.25.25,0,0,0-.26.24c0,.14.14.23.31.32s.52.28.52.65-.36.59-.73.59a.87.87,0,0,1-.53-.15"/><path class="cls-1" d="M56.73,22c-.08,0-.09,0-.09.16v.72c0,.3,0,.56.34.56a.36.36,0,0,0,.23-.08.07.07,0,0,1,.06.09.73.73,0,0,1-.6.26c-.45,0-.53-.26-.53-.59v-1c0-.16,0-.17-.08-.17H55.9a.08.08,0,0,1,0-.13,1.46,1.46,0,0,0,.37-.2.87.87,0,0,0,.26-.29.1.1,0,0,1,.13,0v.28c0,.08,0,.09.09.09h.46s0,.05,0,.1a.15.15,0,0,1-.06.12Z"/><path class="cls-1" d="M57.24,24.6c0-.15.11-.21.24-.21h.1a.25.25,0,0,0,.2-.09A1.2,1.2,0,0,0,58,23.7a.91.91,0,0,0-.08-.35l-.38-1c-.11-.29-.15-.36-.32-.4l-.09,0s0-.12,0-.14h1s0,.1,0,.14L58,22c-.11,0-.11,0,0,.25l.21.54a1.46,1.46,0,0,0,.16.36,1.46,1.46,0,0,0,.15-.29l.14-.31a2.74,2.74,0,0,0,.17-.46s0-.07-.09-.08l-.16,0a.1.1,0,0,1,0-.14h.82s0,.1,0,.14a.6.6,0,0,0-.27.1,2,2,0,0,0-.29.47l-.24.48c-.16.32-.58,1.15-.77,1.58a.37.37,0,0,1-.36.25.23.23,0,0,1-.26-.25"/><path class="cls-1" d="M59.54,21.11c0-.31,0-.35-.12-.42l-.05,0s0-.09,0-.11.43-.15.61-.23a.07.07,0,0,1,.07,0c0,.19,0,.48,0,.68v2.08c0,.35,0,.4.18.42h.1s0,.12,0,.14h-1s0-.1,0-.14h.1c.16,0,.18-.07.18-.42Z"/><path class="cls-1" d="M61,22.57c-.09,0-.1,0-.1.06a.72.72,0,0,0,.71.76.49.49,0,0,0,.45-.24.09.09,0,0,1,.1.08.84.84,0,0,1-.79.52.89.89,0,0,1-.91-.94,1,1,0,0,1,1-1,.66.66,0,0,1,.7.63.21.21,0,0,1,0,.11s-.13.06-.32.06Zm.43-.19a.5.5,0,0,0,.23,0,.12.12,0,0,0,0-.1.29.29,0,0,0-.31-.3.48.48,0,0,0-.46.4s0,0,.07,0Z"/><path class="cls-1" d="M64.91,21.83a.3.3,0,0,1,.09.24c0,.15-.08.22-.12.22a.1.1,0,0,1-.09-.05.59.59,0,0,0-.43-.29.63.63,0,0,0-.54.7.69.69,0,0,0,.67.74.52.52,0,0,0,.51-.25.09.09,0,0,1,.1.08.88.88,0,0,1-.82.51,1,1,0,0,1-.65-.25.94.94,0,0,1-.27-.68,1.05,1.05,0,0,1,1.15-1.05,1.2,1.2,0,0,1,.4.07"/><path class="cls-1" d="M65.41,22.43c0-.21,0-.27-.12-.34l-.06,0a.12.12,0,0,1,0-.11,3.32,3.32,0,0,0,.59-.25.07.07,0,0,1,.07,0c0,.09,0,.17,0,.21a0,0,0,0,0,0,.06c.15-.1.3-.24.46-.24a.24.24,0,0,1,.26.23.26.26,0,0,1-.26.27.24.24,0,0,1-.13,0,.42.42,0,0,0-.23-.09c-.11,0-.14.11-.14.34v.64c0,.35,0,.4.18.42l.18,0s0,.12,0,.14h-1.1s0-.1,0-.14h.08c.16,0,.18-.07.18-.42Z"/><path class="cls-1" d="M67.21,22.57c-.09,0-.1,0-.1.06a.72.72,0,0,0,.71.76.48.48,0,0,0,.45-.24.09.09,0,0,1,.1.08.84.84,0,0,1-.79.52.89.89,0,0,1-.91-.94,1,1,0,0,1,1-1,.66.66,0,0,1,.7.63.22.22,0,0,1,0,.11s-.14.06-.32.06Zm.43-.19a.49.49,0,0,0,.23,0,.12.12,0,0,0,0-.1.29.29,0,0,0-.31-.3.48.48,0,0,0-.46.4s0,0,.07,0Z"/><path class="cls-1" d="M70,23.08c0,.27.06.41.22.41a.43.43,0,0,0,.16-.05s.06.05,0,.09a.65.65,0,0,1-.47.21.45.45,0,0,1-.34-.13s-.05-.06-.07-.06-.06,0-.13.07a.75.75,0,0,1-.4.12.44.44,0,0,1-.48-.45c0-.17.07-.32.39-.44l.52-.19c.09,0,.11-.08.11-.12v-.12c0-.24-.06-.45-.29-.45a.23.23,0,0,0-.25.21.2.2,0,0,1-.09.17.65.65,0,0,1-.3.08c-.06,0-.09,0-.09-.07s0-.16.18-.3a1.29,1.29,0,0,1,.72-.3c.37,0,.6.17.58.59Zm-.46-.16c0-.05,0-.08,0-.08a.75.75,0,0,0-.21.06.31.31,0,0,0-.25.31.26.26,0,0,0,.26.27.21.21,0,0,0,.23-.22Z"/><path class="cls-1" d="M71.21,22c-.08,0-.09,0-.09.16v.72c0,.3,0,.56.34.56a.36.36,0,0,0,.22-.08.07.07,0,0,1,.06.09.74.74,0,0,1-.6.26c-.45,0-.53-.26-.53-.59v-1c0-.16,0-.17-.08-.17h-.16a.08.08,0,0,1,0-.13,1.46,1.46,0,0,0,.37-.2.88.88,0,0,0,.26-.29.1.1,0,0,1,.13,0v.28c0,.08,0,.09.09.09h.46s0,.05,0,.1a.15.15,0,0,1-.06.12Z"/><path class="cls-1" d="M73.8,22.73a1,1,0,0,1-1,1,.93.93,0,0,1-1-1,1,1,0,0,1,1-1,.94.94,0,0,1,1,1m-1,.82c.32,0,.42-.38.42-.74s-.14-.86-.48-.86-.43.24-.43.76.15.84.49.84"/><path class="cls-1" d="M74.27,22.43c0-.21,0-.27-.12-.34l-.06,0a.12.12,0,0,1,0-.11,3.38,3.38,0,0,0,.59-.25.07.07,0,0,1,.06,0c0,.09,0,.17,0,.21a0,0,0,0,0,0,.06c.15-.1.3-.24.46-.24a.24.24,0,0,1,.26.23.26.26,0,0,1-.26.27.24.24,0,0,1-.13,0,.42.42,0,0,0-.22-.09c-.11,0-.14.11-.14.34v.64c0,.35,0,.4.18.42l.18,0s0,.12,0,.14H74s0-.1,0-.14h.08c.16,0,.18-.07.18-.42Z"/><path class="cls-1" d="M99.58,23.59a1.37,1.37,0,0,1-.07-.53.1.1,0,0,1,.13,0c.08.26.26.51.51.51a.25.25,0,0,0,.27-.26c0-.18-.16-.29-.32-.37s-.5-.29-.5-.6.31-.59.7-.59a1,1,0,0,1,.44.09,1.1,1.1,0,0,1,.07.46.09.09,0,0,1-.13,0c-.07-.22-.22-.4-.41-.4a.25.25,0,0,0-.26.25c0,.14.14.24.32.32s.52.28.52.66-.36.59-.74.59A.88.88,0,0,1,99.58,23.59Z"/><path class="cls-1" d="M101.9,23.11c0,.35,0,.4.18.43h.08s0,.12,0,.14h-1s0-.1,0-.14h.08c.16,0,.18-.08.18-.43v-.69c0-.21,0-.27-.12-.34l-.06,0a.12.12,0,0,1,0-.11,2.81,2.81,0,0,0,.61-.25.08.08,0,0,1,.07,0c0,.16,0,.38,0,.58Zm-.55-2.29a.3.3,0,1,1,.3.3A.29.29,0,0,1,101.34,20.82Z"/><path class="cls-1" d="M103.16,23.11c0,.35,0,.4.18.43h.07s0,.12,0,.14h-1s0-.1,0-.14h.1c.16,0,.18-.08.18-.43v-.69c0-.21,0-.27-.12-.34l-.06,0a.13.13,0,0,1,0-.11,3.22,3.22,0,0,0,.61-.25.06.06,0,0,1,.06,0,2.15,2.15,0,0,0,0,.22s0,0,0,0a1.15,1.15,0,0,1,.65-.24c.38,0,.56.26.56.63v.73c0,.35,0,.4.18.43h.11s0,.12,0,.14h-1s0-.1,0-.14h.07c.16,0,.18-.08.18-.43v-.65c0-.24-.09-.43-.38-.43a.39.39,0,0,0-.31.15c-.06.08-.07.13-.07.3Z"/><path class="cls-1" d="M106.48,21.81a.3.3,0,0,1,.09.24c0,.15-.08.22-.12.22a.1.1,0,0,1-.09-.05.59.59,0,0,0-.43-.29c-.27,0-.55.26-.55.71a.69.69,0,0,0,.68.75.53.53,0,0,0,.51-.25.09.09,0,0,1,.1.09.88.88,0,0,1-.83.51,1,1,0,0,1-.66-.25,1,1,0,0,1-.27-.68,1.06,1.06,0,0,1,1.16-1.06A1.19,1.19,0,0,1,106.48,21.81Z"/><path class="cls-1" d="M107.34,22.55c-.09,0-.1,0-.1.06a.72.72,0,0,0,.71.77.49.49,0,0,0,.45-.24.09.09,0,0,1,.1.08.85.85,0,0,1-.8.52.89.89,0,0,1-.91-.95,1,1,0,0,1,1-1,.66.66,0,0,1,.71.64.22.22,0,0,1,0,.11s-.14.06-.33.06Zm.43-.19a.49.49,0,0,0,.23,0,.12.12,0,0,0,0-.1.29.29,0,0,0-.31-.31.48.48,0,0,0-.46.41s0,0,.07,0Z"/><path class="cls-1" d="M110.09,23c0,.45,0,.46.3.5l.13,0s0,.12,0,.14h-1.34s0-.11,0-.14l.13,0c.28,0,.3,0,.3-.5v-1.5c0-.31,0-.43-.23-.45l-.23,0a.09.09,0,0,1,0-.11,3.3,3.3,0,0,0,.92-.3.06.06,0,0,1,.05,0c0,.1,0,.38,0,.57Z"/><path class="cls-1" d="M112.17,20.65a1,1,0,0,1,.77.37,1.38,1.38,0,0,1,.25.91,2,2,0,0,1-.76,1.51,2.68,2.68,0,0,1-1.15.52.11.11,0,0,1,0-.14,2.28,2.28,0,0,0,.67-.34,2,2,0,0,0,.69-1.62c0-.54-.14-1-.49-1s-.41.2-.42.6.18.79.48.79l.16,0a.09.09,0,0,1,0,.11.76.76,0,0,1-.45.13.75.75,0,0,1-.74-.84A1,1,0,0,1,112.17,20.65Z"/><path class="cls-1" d="M115.35,20.58a0,0,0,0,1,0,0,.92.92,0,0,1-.18.39l-1,.13c-.13,0-.14,0-.17.13l0,.17c0,.05,0,.08.1.09l.33.06c.37.06,1.06.26,1.06,1s-1,1.37-1.77,1.4a.11.11,0,0,1,0-.16c.67-.08,1.34-.42,1.34-1.07s-.69-.81-1.21-.83c-.1,0-.11,0-.08-.15l.25-.92c0-.08,0-.12.12-.13Z"/><path class="cls-1" d="M117.91,21.36a.8.8,0,0,1-.52.68,1,1,0,0,1,.62.9c0,.53-.48.8-1,.8s-1-.2-1-.74a.88.88,0,0,1,.62-.79.9.9,0,0,1-.54-.74.85.85,0,0,1,.94-.82C117.53,20.65,117.91,20.9,117.91,21.36Zm-.41,1.72c0-.37-.26-.6-.66-.79a.8.8,0,0,0-.34.67.54.54,0,0,0,.53.59A.45.45,0,0,0,117.49,23.09Zm-.9-1.77c0,.33.35.49.62.62a.7.7,0,0,0,.27-.58.48.48,0,0,0-.45-.52A.44.44,0,0,0,116.6,21.32Z"/></g></g></svg>